<?xml version="1.0" standalone="no"?>
<!DOCTYPE svg PUBLIC "-//W3C//DTD SVG 20010904//EN"
 "http://www.w3.org/TR/2001/REC-SVG-20010904/DTD/svg10.dtd">
<svg version="1.0" xmlns="http://www.w3.org/2000/svg"
 width="16.000000pt" height="16.000000pt" viewBox="0 0 16.000000 16.000000"
 preserveAspectRatio="xMidYMid meet">
<metadata>
Created by potrace 1.11, written by Peter Selinger 2001-2013
</metadata>
<g transform="translate(0.000000,16.000000) scale(0.005882,-0.005882)"
fill="#000000" stroke="none">
<path d="M2390 2572 c-24 -12 -48 -39 -80 -93 -25 -42 -51 -83 -58 -91 -11
-13 -55 -17 -275 -21 -297 -5 -338 -12 -497 -87 -82 -40 -90 -46 -90 -72 0
-40 29 -64 94 -79 31 -7 56 -16 56 -20 0 -4 -37 -35 -82 -68 -127 -93 -296
-173 -481 -226 -463 -132 -640 -247 -757 -490 -68 -140 -84 -221 -77 -399 6
-163 22 -237 78 -352 98 -200 262 -328 502 -389 145 -37 256 -48 397 -42 557
26 992 433 1342 1253 l43 102 35 -29 c40 -34 41 -33 65 71 43 191 27 389 -45
557 -22 51 -40 107 -40 124 0 17 16 67 35 112 59 136 41 206 -62 241 -58 20
-60 20 -103 -2z m80 -123 c0 -6 -15 -43 -32 -82 -28 -62 -33 -83 -32 -152 0
-71 4 -88 37 -157 45 -94 69 -202 65 -294 l-3 -69 -78 160 c-43 88 -80 161
-82 164 -2 2 -30 -20 -62 -49 -53 -48 -121 -87 -180 -105 -28 -8 -29 2 -8 100
8 39 15 96 15 128 l0 57 -49 0 c-44 0 -289 38 -381 59 l-35 8 40 13 c26 8 133
15 315 19 314 7 319 8 366 88 57 98 75 123 89 123 8 0 15 -5 15 -11z m-635
-390 c72 -12 135 -23 142 -24 8 -3 6 -26 -7 -87 -10 -46 -20 -111 -22 -145
l-4 -63 71 0 c86 0 173 21 239 59 l50 28 56 -115 57 -115 -49 -116 c-177 -414
-325 -656 -527 -864 -124 -128 -201 -186 -336 -252 -152 -75 -238 -96 -410
-102 -122 -4 -156 -2 -260 20 -362 74 -534 252 -575 597 -27 219 53 442 208
580 98 88 263 160 559 246 87 25 201 65 253 90 110 52 258 149 349 228 36 31
67 56 70 56 3 0 65 -9 136 -21z"/>
</g>
</svg>
