<svg id="Layer_1" data-name="Layer 1" xmlns="http://www.w3.org/2000/svg" viewBox="0 0 94.66 93.82"><defs><style>.cls-1{fill:#fb9bdc;fill-rule:evenodd;}</style></defs><title>cat</title><path class="cls-1" d="M15.28,48.5c-.15-2,0-3.72,1.69-4.83-.39-1.06-.79-2.07-1.12-3.11a21.92,21.92,0,0,1-1.13-6.13c0-1-.09-2-.09-2.94a19.39,19.39,0,0,1,1.76-7.39c.43-1,.91-2.06,1.36-3.08a12.63,12.63,0,0,0,.82-4.61,27.41,27.41,0,0,1,1.27-7.18,39,39,0,0,1,1.3-3.77C22.31,2.85,24.26,2.3,26.84,3a29.47,29.47,0,0,1,7.77,3.18,13.36,13.36,0,0,1,3.84,3.24,1,1,0,0,0,1,.44c3.8-.32,7.61-.74,11.42-.88,2.68-.1,5.38.21,8.07.31A1.33,1.33,0,0,0,59.72,9c1.28-.91,2.51-1.89,3.81-2.76,1.08-.73,2.24-1.37,3.37-2a16.68,16.68,0,0,1,5.47-2.11,4.61,4.61,0,0,1,5.33,3.25,28.7,28.7,0,0,1,.67,6c.08,1.82.2,3.65.42,5.46a19.23,19.23,0,0,0,2,5.73c.89,1.9,1.81,3.79,2.65,5.54a27.78,27.78,0,0,1,3.16-1.65,7.74,7.74,0,0,1,7.91,1.37,6.54,6.54,0,0,1,2.71,3.63,9.69,9.69,0,0,1-.07,4.8,2.77,2.77,0,0,1-2.38,2c-.56.09-.73.33-.6.9.18.73.23,1.48.41,2.21.68,2.92,0,5.71-1,8.39a15.81,15.81,0,0,1-2.37,3.88c-.83,1.12-1.85,2.1-2.76,3.17a1.14,1.14,0,0,0-.22.83c.59,3.58,1.32,7.14,1.77,10.73a13.92,13.92,0,0,1-1,6.62c-.74,2-1.45,4-2.31,5.87a18.12,18.12,0,0,1-3.5,5.55,19.85,19.85,0,0,1-7.16,5.07c-1.78.64-3.61,1.14-5.41,1.74a49.89,49.89,0,0,1-8,1.62,54.41,54.41,0,0,1-8.87.8c-2.81,0-5.62.27-8.42.18A64.29,64.29,0,0,1,37,95.08a68.24,68.24,0,0,1-7.06-1.82,7.27,7.27,0,0,1-1.12-.68.81.81,0,0,0-.65-.05,6.47,6.47,0,0,1-7.18,0,10.52,10.52,0,0,1-4.52-4.29c-.3-.6-.48-1.27-.74-1.89a1.16,1.16,0,0,0-.37-.55,8.86,8.86,0,0,1-3-2.71.82.82,0,0,0-.59-.34c-2.56.17-4.33-1.21-5.92-3a10.17,10.17,0,0,1-2.26-4.08,9.59,9.59,0,0,1,0-5.27,1.18,1.18,0,0,0,0-.79,6.6,6.6,0,0,1,2.48-8.75,2.23,2.23,0,0,0,1.09-1.52,21,21,0,0,1,3.29-7,12.54,12.54,0,0,1,4.29-3.73A2.7,2.7,0,0,1,15.28,48.5Zm3.32-19.4c.12.63-.35,1-.68,1.39-.11.13-.09.36-.17.7a5.58,5.58,0,0,0,1.13-.85,3.53,3.53,0,0,0,.35-1l-.65-.17c0-.18-.1-.39,0-.54.32-.72-.15-.56-.5-.56C17.69,28.7,18.29,28.82,18.6,29.11Zm9,57.2,0,0c.13-.07.36-.14.36-.21,0-.47-.1-.93-.14-1.3H26.75l.51-1.13c-.41.25-.75.47-1.1.65a1.2,1.2,0,0,1-.49.11,5.28,5.28,0,0,0-1.25.07,14.68,14.68,0,0,0-2.19.93,11.49,11.49,0,0,0-4.16,3.47c1.17.88,2.29,1.75,3.43,2.59.24.17.5.29.77-.08.67-.93,1.39-1.81,2-2.58l-.12-.78,1-.1,0,.18ZM11.74,53.84,11,53.23c-.16.65-.28,1.13-.42,1.61a.82.82,0,0,1-.2.4c-.66.55-.68.57,0,1a6.2,6.2,0,0,0,1,.39,1.61,1.61,0,0,1,.45.27c-.24.56.24.84.47,1.21a5.6,5.6,0,0,1,.56,5.4,10.22,10.22,0,0,1-3,3.49c-.18.16-.45.47-.4.6a7.24,7.24,0,0,0,.84,1.5c.12.16.45.18.68.27l-.27.6.79.71a.31.31,0,0,1,0-.14c.14-.17.29-.33.43-.49a2.51,2.51,0,0,1,.15.6,6.82,6.82,0,0,1-.1.89c.67-.39.75.16.78.51s.14.5.45.38.86-.4,1.29-.58a2,2,0,0,1,.48-.08c0,.17,0,.41-.14.5a10.84,10.84,0,0,1-1.07.73c.71.11,1.24.17,1.75.3.14,0,.23.33.28.53s-.07.25-.14.47l.71-.4a7.12,7.12,0,0,1,.45.84,3.79,3.79,0,0,1,.12.77c.76-.62,1.52-.64,1.78-.08l-.85.36,1.15.18.37-.47L20,76a3.65,3.65,0,0,0,1.13.32,12.8,12.8,0,0,0,2.5-.35A1.75,1.75,0,0,0,25,73.77a4.88,4.88,0,0,0-3.05-3.7c-.12-.06-.2-.2-.3-.3.13-.09.24-.24.37-.25a.9.9,0,0,1,.51.14,1.46,1.46,0,0,0,2.22-.77c.06-.16.36-.22.55-.33l.13.19-.28.66.6.34,1-.61-1-.16.37-.46a4.26,4.26,0,0,0-2.31-1.72c-.14,0-.21-.29-.31-.45.18-.06.41-.23.53-.17a15.31,15.31,0,0,1,1.9,1.15A9.2,9.2,0,0,1,27,68.46,5.56,5.56,0,0,0,24.12,65a6.65,6.65,0,0,1-3.33-4.23,19.12,19.12,0,0,1-.54-3.92c-.28.23-.66.39-.77-.41,0-.23-.39-.41-.6-.61,0,.31,0,.53,0,.76l-.95-.13-.68.1a2.28,2.28,0,0,1,.3-.55c.39-.38.4-.36.12-.79-.85.59-1,.59-1.63-.13.29-.1.52-.19.75-.26s.41-.22.22-.54l-1.2.3.15.09c-.13.23-.23.64-.39.66-.48.05-.37-.34-.32-.64s.11-.81.14-1c-.28,0-.74,0-.81-.09-.26-.5-.56-.25-.89-.17a1,1,0,0,1-.75,0,1.26,1.26,0,0,1-.38-.76,3,3,0,0,1,.1-.84c-.74.38-.83,1-.12,2l-.84.09ZM62,61c0,.34,0,.63-.44.57s-.74-.06-1-.07a8.27,8.27,0,0,1,.24,1c0,.08-.23.28-.25.27-.24-.16-.47-.36-.65-.51l-.89,1,.7.05c.15,0,.36,0,.42.06a.45.45,0,0,1,0,.43c-.29.36-.2.59.13.87.17.15.22.43.35.71l-.55.24-1-1.14-.21.16c.28.43.57.84.82,1.28.08.15.12.46,0,.53s-.37.08-.57.08-.35,0-.52,0l1.54.75a2.93,2.93,0,0,0,.42.15,5.39,5.39,0,0,1,.6.17.9.9,0,0,1-.06.35,4.83,4.83,0,0,1-.61-.08h-.3c.11.42.14.67.71.52.31-.08.73.19,1.06.36a5,5,0,0,1-.17.64,2.15,2.15,0,0,0,0,.44l.22.09c.17-.34.32-.69.51-1a1.61,1.61,0,0,1,.47-.53,1.52,1.52,0,0,1,.64-.18.92.92,0,0,1,.51.08.37.37,0,0,1,.07.36,1,1,0,0,1-.44.26,7.08,7.08,0,0,1-.74.16l.44,1,.87.39-.81.57c0,.06.2.25.17.4-.1.47,0,.67.51.6a3,3,0,0,1,.82,0,2,2,0,0,1,.56.25,2.29,2.29,0,0,1-.43.38c-.1.06-.27,0-.41,0l-2,.12c.92.85.92.85.8,1.68.42.1,1.14,0,.54.82,0,0,0,.17,0,.26,0,.32,0,.63,0,.95a7,7,0,0,1,.86,1.06c.07.12-.23.45-.38.73,1.09-.12,0-1.31.91-1.57l.52,1c.35-.06.6-.11.86-.13a1,1,0,0,1,.09.28c-.22.09-.45.15-.68.24l-1.38.58a.75.75,0,0,0,.33.22c.15.1.29.23.43.35a2.27,2.27,0,0,1-.48.25c-.4.1-.78.14-1.05-.3-.06-.1-.31-.08-.54-.13,0,.46,0,.81,0,1.17l-.11-.07-.48.72c-.59,0-.52.08-.84.88-.14.35-.51.69-.66,1.11a1.57,1.57,0,0,1-.51-.15c-.11-.06-.16-.22-.2-.28-.23.33-.53.58-.59.88a4,4,0,0,0,.15,1.1,4,4,0,0,1,0,.7c-.07,1.22-.57,1.61-1.78,1.37a3.82,3.82,0,0,1-.54-.16c-.63-.22-1.24-.39-1.34.59,0,.1-.12.19-.19.29A2.44,2.44,0,0,1,54,88c-.38-.09-.52,0-.71.33A12.08,12.08,0,0,1,52,90a.84.84,0,0,1-.79.17,18.2,18.2,0,0,1-1.63-1.44c-.18-.17-.35-.37-.54-.59A5.37,5.37,0,0,1,49,89s-.3,0-.46,0c0-.28,0-.56,0-1-.52.13-1,.29-1.59.37-.7.12-1.42.16-2.13.26a1.64,1.64,0,0,0-.72.22c-.66.48-1.27,1-1.94,1.5-.34.25-.86.27-.92.84,0,.06-.31.15-.47.13-.62-.08-.85.17-.68,1,.3-1,.74-.7,1.16-.22s1.31.66,2,1a3.89,3.89,0,0,1,.67.59,1.61,1.61,0,0,1,.62.12,14.33,14.33,0,0,1,1.24.87l.15-.24a7.08,7.08,0,0,1-.71-.39,1.27,1.27,0,0,1-.25-.37,2.87,2.87,0,0,1,.39-.22c.24-.09.48-.14.72-.22s.54-.2.81-.31l-.07.24,1,.73a1.91,1.91,0,0,1,2.35.36c.22-.1.52-.32.59-.25.48.39.88.11,1.41-.11a3.41,3.41,0,0,0-.58-.29c-.36-.1-.74-.12-1.09-.24-.9-.33-.89-.35-.4-1.32.18.12.52.28.51.33-.17.52.29.51.52.6s.75.14,1.12.24.6.19.41.64c-.06.14,0,.36.08.67.37-.49.6-.85.89-1.16s.58-.28.76.14.22.57.29.78a9.46,9.46,0,0,1,.66-1c.05-.07.47,0,.48.09a2.37,2.37,0,0,1-.07.66c.35.07.8.65,1.13-.11,0,0,.19-.07.26,0,.76.36,1.41-.35,2.18-.19a1.19,1.19,0,0,0-.34-.5,6.09,6.09,0,0,0-.5-.35c.09-.1.2-.29.28-.27a1.87,1.87,0,0,1,.49.23l1-.32.1.22-.34.55c.2,0,.42,0,.42-.09,0-.79.72-.58,1.12-.75.05,0,.3.4.45.61.53-1.3.71-1.38,1.42-.5a2.68,2.68,0,0,1,.18-.59c.09-.16.23-.35.39-.39a.62.62,0,0,1,.52.16,1.64,1.64,0,0,0,2,.43.55.55,0,0,1,.43.06c.27.16.5.37.84.62a2,2,0,0,1-.1-.48c0-.22.09-.44.14-.66l.65.27.85.4-.32-.76h1l.25-.72.72.55c.15-.14.39-.38.64-.6s.5-.24.62.16a3.07,3.07,0,0,0,.2.42c.17-.09.35-.18.51-.28s.36-.24.46-.31a2.32,2.32,0,0,1-.28-.58c0-.08.21-.21.32-.31l.43.54c.1-1,.81,0,1.16-.28-.07-.84.59-1.39,1.56-1.4a1.07,1.07,0,0,0,1-.67,1.41,1.41,0,0,1-2.08-.42,6.88,6.88,0,0,1,.73-.08c.14,0,.29.08.43.07a5.09,5.09,0,0,0,1.07-.16,6,6,0,0,0,.88-.45c.18-.09.41-.27.53-.21.7.3.69.32.71-.67a7.6,7.6,0,0,0,.58.54,2.61,2.61,0,0,0,.46.21c0-.17.17-.4.11-.51s-.32-.16-.49-.24c.31-.35.41-.53.55-.67a2.22,2.22,0,0,1,.41-.28l.11.45c.26,0,.72.13.89,0a2.41,2.41,0,0,0,.66-1.21c.16-.89.34-1.17,1.05-1.12l-.09-.64c.72-.31.79-.41.56-.68a.69.69,0,0,1,.47-1.14c.55-.07.63-.31.34-.73a5.33,5.33,0,0,0-.55-.63L82.52,77,81.77,77l.46-.72-.46-.83c-.59.28-.59.28-.83-.23.68-.45.68-.62.06-1.12a.63.63,0,0,1-.12-.51c.13-.73,0-.89-.67-1-.11,0-.2-.14-.38-.27l.56-.33c0-1.39,0-2.68,0-4,0-.66.5-1.34-.2-2l.74-.37L80.47,65c.55-.23,1.19-.37,1-.8l1.56-2c-.2.12-.34.3-.53.41a.47.47,0,0,1-.38,0c-.07,0-.14-.27-.13-.28.35-.2.34-.85,1-.7.39.09.88.1,1.05-.44L83.21,61c.1-.17.18-.47.31-.49a4.08,4.08,0,0,1,1,.06c.12-.5.36-.63,1-.38.12,0,.27.18.37.15.54-.18,1.06-.4,1.67-.63l-.77-.28.55-.82c-.25-.62-.56-1.43-.91-2.21-.42-.94-.9-1.85-1.3-2.8-.15-.36.06-.93-.68-.83-.16,0-.35-.2-.53-.31a1.83,1.83,0,0,1,.6-.31c.66-.06,1.33,0,2-.08a.76.76,0,0,0,.25-.1l.73-.3.56-.19c-.28-.36-.52-.62-.71-.9-.08-.12-.16-.37-.11-.41a.82.82,0,0,1,.49-.19,2.36,2.36,0,0,1,.8.08c.17.05.3.23.46.37a7.42,7.42,0,0,1,1.27-5.66,6.72,6.72,0,0,0,.49-1.28,2.07,2.07,0,0,0,.69,0,17.5,17.5,0,0,0,1.89-.67c.17-.07.42-.3.4-.43-.08-.64-.24-1.28-.34-1.75l-.91-.31.78-.69-.13-.14c-1.09.61-1.38.55-1.45-.23H90.33l-.1.73a5.13,5.13,0,0,1-.7-.41c-.17-.14-.27-.37-.44-.51s-.42-.33-.59-.28a9.15,9.15,0,0,0-1.25.5l-.21.52a5.05,5.05,0,0,1-.7-.48.44.44,0,0,1,.06-.41c.35-.14.73-.22,1.1-.33,0,0,.07,0,.14-.11l-.33-.29L86,38.68l-.16-.17a5.39,5.39,0,0,1,0,.75,2.46,2.46,0,0,1-.24.52c-.15-.11-.32-.22-.46-.34s-.1-.25-.18-.27c-.49-.14-1-.23-1.47-.38-.11,0-.14-.27-.23-.47l1.19-.13a1.27,1.27,0,0,0-.54-.26c-.5-.16-.82.08-.83.54s-.11.76-.66.71c-.05,0-.13.22-.15.26.28,0,.64-.06.75.07a1.08,1.08,0,0,0,1.17.36c.17,0,.41.2.59.35a.71.71,0,0,1,.22.35,3.3,3.3,0,0,1,.05.54,2.29,2.29,0,0,1-.56-.18,4.24,4.24,0,0,1-.54-.46l-1.06,1.23c.69.1.49.42.28.84a2.86,2.86,0,0,0-.17,1.05,3.55,3.55,0,0,0,.1.83c.08.36.21.71.26,1.08a.72.72,0,0,1-.15.45,6.76,6.76,0,0,0-.51.65c-.31.63-.51,1.32-.87,1.91a11.83,11.83,0,0,1-4.44,4.11c-1.54.86-3.21,1.5-4.82,2.25a4.69,4.69,0,0,0-.67.35,7.55,7.55,0,0,0-.62.52l-.15-.14-.14.83.87.52-.72.3c.14.56.13.48.67.42.28,0,.62.27.9.47a.41.41,0,0,1,0,.4,1.79,1.79,0,0,1-2,.3c-.11,0-.19-.16-.3-.18-.35-.06-.71-.12-.5.46,0,.12,0,.28-.06.42a2.44,2.44,0,0,1-.5-.11c-.11,0-.19-.17-.32-.28.06.41.25.85.11,1s-.62.19-.94.27l-.1-1c-.33-.19-.66-.39-1-.56a2.44,2.44,0,0,0-.69-.2,4.67,4.67,0,0,0-.69,0l.27-.68c-.42.18-.71.39-.67.9a2.06,2.06,0,0,1-.16.64l-.15-.06.13.68c-.15,0-.34.09-.44,0a1.33,1.33,0,0,1-.42-.49,8.28,8.28,0,0,1-.34-.9c-.64.62-.07,1,0,1.42a.64.64,0,0,1-.09.41s-.25,0-.35-.07c-.33-.18-.66-.38-1-.57-.62,1-.83,1.09-1.45.37l-.33.59L62,61Zm-42-29h0a6.11,6.11,0,0,0-.56.46,2.1,2.1,0,0,0-.25.42,2,2,0,0,1-.4-.31,1.06,1.06,0,0,0-1.43-.33c.31.57.31,1-.43,1.14.58.74.57,1,0,1.86.3.33.88.72.82.94-.2.74-.66-.1-.95,0a1.56,1.56,0,0,1,0,.58,2.42,2.42,0,0,0,.1,2.55.59.59,0,0,1,.12.46.79.79,0,0,0,.45,1.08c.14.08,0,.63,0,.94s.74.09.58.75a1.84,1.84,0,0,0,1.46,1.93c.16,0,.39.19.41.32.14.87,1,1.07,1.48,1.59.07.07.29,0,.41,0,.44-.18.66,0,.65.42s.13.62.61.42.76-.16.67.48c0,.14.17.38.32.45a8.69,8.69,0,0,1,2,1,.44.44,0,0,0,.39.08c.37-.19.56,0,.74.27a.71.71,0,0,0,.4.25c.79.21,1.58.41,2.26.58.25-.21.46-.5.6-.47s.39.31.58.48.35.36.46.32a1.67,1.67,0,0,1,1.87.51s.08,0,.09,0a3.9,3.9,0,0,0,.19-.63,6,6,0,0,1,0-.68.43.43,0,0,1,.36-.23.54.54,0,0,1,.36.32c0,.15-.07.34-.11.5.73.38,1.81-.08,2.12,1.06.18,0,.41-.13.54-.06.43.26.55,0,.79-.29a2.42,2.42,0,0,1,.84-.38l.14.24a3.18,3.18,0,0,0-.3.51,1.21,1.21,0,0,0,0,.42c.13,0,.31-.06.37-.15.3-.49.6-.53,1-.06,0,.06.18,0,.28.05l-.46-1.27c.44,0,.75,0,1.06,0a3.19,3.19,0,0,1,.58.16l-.31.49c-.15.24-.39.49-.4.74s.4.31.64.4a2.19,2.19,0,0,0,.65,0c0-.08,0-.11,0-.12a4.81,4.81,0,0,1-.34-.66s.23-.17.36-.25a2.92,2.92,0,0,0,.39.61,1.27,1.27,0,0,0,.56.25,5.7,5.7,0,0,1,.75.13,3.53,3.53,0,0,1,.64.42l.64-.72.7.71.78-.07.5-.73.63.67c.25-.37.51-.44,1,0,.2.18.78-.06,1.19-.13s.74-.22.76-.19c.31.76.79.29,1.21.19a1.46,1.46,0,0,1,.6-.08,5,5,0,0,0,3.5-.16.67.67,0,0,1,.47,0,2,2,0,0,0,2-.27.81.81,0,0,1,.52-.05,6.13,6.13,0,0,0,1.26.15c1.49-.16,3-.37,4.46-.61,1.08-.17,2.14-.4,3-.58a5.71,5.71,0,0,1,.27-.72,7.71,7.71,0,0,1,.95.31c.23-.26.47-.86,1.11-.35,0,0,.2-.14.32-.21l1.11-.63c-.09-1.22,1,.28,1.27-.39-.15-.28-.79-.58,0-.9l1.48-.62a4.58,4.58,0,0,1,0-.75s.33-.11.34-.09c.08.19.1.41.19.6a1.4,1.4,0,0,0,.26.33l.27-1c.06-.33.09-.75.29-.89.81-.57,1.28-.52,1.65,0,.2-.47.79-.86.28-1.47,0,0,.18-.31.33-.38s.27.11.37.2a3.51,3.51,0,0,1,.34.43,1.9,1.9,0,0,0,.23-.61,2.79,2.79,0,0,0-.2-.73l1.4-.45,0-.28c-.76.34-1,0-1-.59,0-.18,0-.36,0-.55a2.21,2.21,0,0,1,.64.29,2.62,2.62,0,0,1,.37.71c.13-.22.29-.4.26-.46-.55-.94.09-1.27.79-1.65a1,1,0,0,0-.72.13c-.91.73-1.12.82-1.9.08a6.22,6.22,0,0,0-4.3-1.55,6.24,6.24,0,0,1-1.45-.25c-.17,0-.4-.36-.37-.49a4.69,4.69,0,0,1,.51-1.25c.07-.12.38-.09.66-.13l-.19.7c.47,0,.89,0,1.31,0q1.67.09,3.34.21a.56.56,0,0,1,.34.2c.24.28.45.59.67.88l.17-.15,1-.78a4.81,4.81,0,0,0-4.43-2.38c-1,0-2.06.08-3.09.09a1.8,1.8,0,0,1-.59-.23,4,4,0,0,1,.31-.63.78.78,0,0,1,.36-.2,8.48,8.48,0,0,1,4.55-.53c1.35.24,3,.11,3.71,2,0-.59,0-1,0-1.51a.58.58,0,0,0-.92-.11c-.09.07-.45-.08-.61-.22a9.32,9.32,0,0,1-.84-1c.39,0,.64,0,.8.07a2.9,2.9,0,0,1,.56.56c.16-.29.29-.65.35-.63a3.59,3.59,0,0,1,.77.33c0-.37,0-.77,0-1.16-.86.55-.84.52-1.8-.23-.36-.28-.82-.58-1.34-.19a.58.58,0,0,1-.51.06c-.88-.51-1.65,0-2.32.1,0,.33.09.62,0,.73-.28.29-.45.05-.65-.2a.81.81,0,0,0-.62-.21c-.44,0-.87.21-1.31.24a.82.82,0,0,1-.66-.26,3.65,3.65,0,0,1-.28-1c.16,0,.33-.11.47-.07s.21.22.27.29a6.7,6.7,0,0,1,1.16-.58,12.67,12.67,0,0,1,4.54-.76c.8.07,1.21-.52,1.06-1.29a1.91,1.91,0,0,1,0-.52c.12.14.28.26.33.42.18.63.38.75.92.55l.3-.71a2.05,2.05,0,0,0,.54.27,3.29,3.29,0,0,0,.72,0c-.29-.29-.63-.35-.73-.53s.07-.49.12-.74a1.42,1.42,0,0,0-.46.37c-.18.17-.4.3-.6.45l-.14-.69a2.63,2.63,0,0,1-.52-.24s0-.35.07-.35a1.51,1.51,0,0,1,.56.08c.48.19.7.13.93-.39l-.58.22a3.77,3.77,0,0,0-1-.56,2.35,2.35,0,0,1-2.18-2c.33.05.78-.2.86.42s.69.66,1.35.81c-1.34-1.41-1.55-2-1.12-2.88l-1-.39a1.35,1.35,0,0,1-.13,2c-.45.1-.58-.1-.41-.49a1.93,1.93,0,0,0-.5-2A9.42,9.42,0,0,1,75.59,23c-.06.11-.31.16-.47.15s-.26-.21-.24-.29c.09-.44.23-.87.37-1.34a35.71,35.71,0,0,0-3.63-.81,26,26,0,0,0-9.49.31c-3.8.95-6.83,2.85-8.68,6.4-.09.17-.3.27-.45.41l-.2-.11.49-2.41-.7.24.15.57c-.19,0-.37.07-.56.09a1.4,1.4,0,0,1-.43,0c-.21,0-.41-.13-.73-.22.54-.51,1.11-.77.91-1.57-.17.19-.39.33-.38.44.1.92-1,.36-1.13.91l-.67-.45-1.33.12,2.22.73,0,.28a1.46,1.46,0,0,1-.58.09c-.68-.18-1.29-.66-2.08-.43-.09,0-.26-.21-.4-.31s-.22-.15-.34-.23a1.27,1.27,0,0,0-.11.41,1.74,1.74,0,0,0,.15.44c.57-.06,1.15.33,1.11.83,0,.18-.46.33-.71.48a.52.52,0,0,1-.2.08l-1.3.2-.25-.38.77-.5a24.63,24.63,0,0,0-2.35-2,26.4,26.4,0,0,0-6-2.71,19.34,19.34,0,0,0-14.9,1.42c-.66.35-1.51.39-1.94,1.14,0,.07-.21.06-.33.07l-1.05.11c0,.77,0,.73-.62.72-.2,0-.42.21-.6.36a6.6,6.6,0,0,0-.55.59l.29.42.57-.67c.8.41.23.7-.18,1.08.29.43.58.85.85,1.27a.43.43,0,0,1,.06.33c-.33.79.21.62.62.56a9,9,0,0,1,5.12.3c.3.13.73,0,1.1-.05.17,0,.46,0,.48.11.13.49.75,1,.24,1.33,0,.43,0,.69,0,.95-.19,0-.53,0-.55-.08-.23-.84-1-.47-1.35-.67-.22.27-.35.52-.56.63s-.34-.16-.51-.26l.51-.63C23.26,30.84,21.6,31.46,19.94,32ZM37.7,21.36l0,.09a3.81,3.81,0,0,0,.8.43,22.29,22.29,0,0,1,5.63,2.46c.77.46,1.48,1,2.26,1.57a3.13,3.13,0,0,0-.06-.51c-.5-1.68-1-3.36-1.51-5a1.54,1.54,0,0,1,.09-.6c.2.07.47.09.58.23.58.76,1.13,1.54,1.68,2.32L48.39,24c.26-1.15.41-2.15.73-3.09.24-.72.23-1.26-.53-1.67l.07-.2,1-.16a.51.51,0,0,1,.07-.18c.15-.24.32-.46.48-.69a2.65,2.65,0,0,1,.44.75c.21,1.08.36,2.17.55,3.26.07.42.17.84.29,1.4,1.06-1.4,2-2.67,3-3.92.12-.15.36-.19.54-.29.09.21.3.45.26.63-.2.94-.45,1.86-.69,2.79l-.64,2.53,3.55-2.84c.24-.2.67-.27.56-.75,0-.06.28-.27.35-.24.77.39,1.31-.2,1.79-.34l.52-1.08a15.52,15.52,0,0,1-1.08-1.23c-.3-.42-1-.73-.57-1.61,1.06,1.28,1.8,2.74,3.5,3.24A6.26,6.26,0,0,0,62.65,19c-.1-.93-.3-1.85-.4-2.78,0-.2.22-.42.34-.63a2.6,2.6,0,0,1,.22.56c.2,1.31.38,2.62.57,4,.74-.1,1.43.08,1.88-.6.05-.08.37,0,.55,0a4.3,4.3,0,0,0,.77.3c.75.06,1.5,0,2.25.06a22.64,22.64,0,0,1,8.33,1.69,1.09,1.09,0,0,0,.83,0c.25-.13.4-.45.66-.77a28.45,28.45,0,0,1-1.49-10.35,15.53,15.53,0,0,0-.41-4c-.61-2.32-2.11-3.44-4.19-3a26.14,26.14,0,0,0-3.9,1.39c-.26.11-.3.73-.56.85s-.8-.12-1.13,0a12.17,12.17,0,0,0-1.85,1c-.43.26-1,.43-1,1.13,0,.06-.32.24-.4.2a.87.87,0,0,0-1.2.39.84.84,0,0,0,.1,1.12.62.62,0,0,1,.07.6,6.72,6.72,0,0,1-.81.9c-.15.15-.3.3-.46.44l-.42-.81a4.86,4.86,0,0,0-.71.22,2.47,2.47,0,0,0-.49.38l-.28-.62a1.12,1.12,0,0,0-.1-.13l-.46,0a2.7,2.7,0,0,1-.51.54.46.46,0,0,1-.4-.16c-.15-.91-.88-.36-1.32-.48-.13,0-.48.43-.6.73-.58,1.51-1.1,3-1.68,4.54-.1.25-.38.58-.59.58s-.44-.33-.63-.54a1.49,1.49,0,0,1-.19-.45l-1.87-4.84-.31.83c-.47,1.3-.94,2.59-1.4,3.89a1,1,0,0,1-1.08.82l-2.39-5.45-.26,0a10.59,10.59,0,0,0-.45,1.21c-.3,1.23-.54,2.47-.88,3.69a1.35,1.35,0,0,1-.72.75c-.14.06-.55-.31-.69-.56-.81-1.45-1.56-2.92-2.36-4.37a.75.75,0,0,0-.52-.35c-.86,0-1.72,0-2.65,0,.66,1.43-.88.74-1,1.37a1.31,1.31,0,0,1-.25.59c0,.06-.27,0-.42-.07l.17-.56s.07-.09.06-.12c-.22-.87.31-.64.8-.61a1.14,1.14,0,0,0-.53-.26l-.93-.3a6.44,6.44,0,0,0-1.15-.14c-.12,0-.3-.32-.27-.46a4,4,0,0,1,.33-.84l.64.68.4-.27c-.37-.83-.27-1.14.52-1.45C35.09,8,34.34,7.44,33.56,7a32.81,32.81,0,0,0-7-3c-2-.64-3.56-.12-4.32,1.95a44.66,44.66,0,0,0-1.67,5.28,43.32,43.32,0,0,0-.8,5.48c-.17,1.68-.12,3.37-.93,4.93-.06.12.08.34.05.5a1.6,1.6,0,0,1-.23.57,4.37,4.37,0,0,0-.57.84c0,.09.37.38.61.51.42.23.55.44.09.75a4.19,4.19,0,0,0-.33.3c.25,0,.41,0,.45,0a1.12,1.12,0,0,1,1.19-.53c.09,0,.27-.12.31-.23.33-.91.34-.92,1.05-.27.4-.16.83-.3,1.23-.5a24.82,24.82,0,0,1,6.8-2.35c.8-.14,1.67-.06,2.05-1.09-.37-.72-1.11-1.38-1.07-2.4a.92.92,0,0,1,.43.36c.39.61.74,1.24,1.16,1.83.28.39.56.71-.11,1Zm5,65.87a8.88,8.88,0,0,1,0-4.45.49.49,0,0,0-.16-.35c-.37-.35-.3-.52.19-.64a1.22,1.22,0,0,0,.63-1.44c-.25-.43,0-.5.33-.68a4,4,0,0,0,1-.94c.09-.1.08-.34.19-.39.89-.51,1.8-1,2.75-1.52a11.44,11.44,0,0,0-2.92-6.53.76.76,0,0,0-.46-.23,10.44,10.44,0,0,0-5.36,1.34c-.12.06-.31.16-.31.25,0,.73-.81.86-1.11.89-.81.1-.67.54-.65.84l.55.79a6,6,0,0,1-.81.19,1.42,1.42,0,0,1-.47-.09,5.57,5.57,0,0,0,.5.84c.3.36.19.48-.19.63a4.63,4.63,0,0,0-.82.53c2.09.08,2.86.45,3.17,1.56a2.39,2.39,0,0,1-1.55,2.87,2.86,2.86,0,0,1-1.78.1c-.47-.13-.85-.61-1.15-.84l-1.56.18c.09.12.18.37.27.37.82,0,.65.41.33.83a3.8,3.8,0,0,1-.57.53l.6.37-.59.47.72.26-.71,1a2.39,2.39,0,0,1,.8-.13,1.55,1.55,0,0,1,.66.42.44.44,0,0,1,0,.36,2.48,2.48,0,0,1-.65.06.86.86,0,0,1-.26-.05l-.21.65c.13.32.34.58.28.75a2.19,2.19,0,0,0,.91,2.33.6.6,0,0,1,.16.53c-.1.4,0,.37.38.44a6.7,6.7,0,0,1,1.86.87s0,.31-.08.5l1.29.11v-.17a3.67,3.67,0,0,1-.59-.11.34.34,0,0,1-.17-.26.36.36,0,0,1,.18-.25,2,2,0,0,1,1.49.65,10.69,10.69,0,0,0,3.84-1.9l-.39-.53,1-.58c-.77-.08-1.3-.12-1.84-.19a1,1,0,0,1-.47-.19.38.38,0,0,1,0-.35,1,1,0,0,1,.58-.13A11.81,11.81,0,0,1,42.71,87.23ZM54.07,75.75l-.2-.2a12.14,12.14,0,0,1,.79-1.27,6.71,6.71,0,0,0,1.41-4,2.65,2.65,0,0,0-.25-1c-.26-.74-1-.69-1.58-.86a2.48,2.48,0,0,0-1.53.1c-.95.37-1.31,1.33-1.82,2.12-.12.18-.3.44-.44.44s-.4-.23-.48-.41a2.51,2.51,0,0,0-1.84-1.38c-1.21-.32-1.56,0-1.3,1.23a.64.64,0,0,1,0,.21c-.15.88.59,1.32.93,2a3.29,3.29,0,0,0-.17-.8,1.6,1.6,0,0,1,0-.44c.15.06.35.09.45.2a5.59,5.59,0,0,1,.71.94c.28.5.52.52.88.07.1-.12.4-.07.6-.11a1.35,1.35,0,0,1,0,.5c-.15.46-.35.9-.54,1.37l.41.5c-.26.48-.5.31-.87.13s-.64,0-1.07.07c.14.15.29.36.32.34.82-.45,1.09.18,1.4.77.2-.13.34-.25.5-.34a2.79,2.79,0,0,1,2.6.51,2,2,0,0,1-.5,2.22,2.51,2.51,0,0,1-2.42.63c.32.23.72.5,1,.4a.83.83,0,0,1,1.18.46c-.73.9-.75.9-1.73.41l.15,1.16.68.62-.55.38c-.3.91-.61,1.81-.89,2.72-.05.18.05.41,0,.62a1.18,1.18,0,0,1-.11.43c-.78-.09-.81.68-1.3,1a2.25,2.25,0,0,0,2.56-2.12c0-.68.09-1.35.13-2l.22-.05a4.23,4.23,0,0,1,.29.68,5.69,5.69,0,0,0,1.54,3c.84.77,2.85.82,3.2-.84A5.11,5.11,0,0,0,55,81.21a2.73,2.73,0,0,1-.64-.88.69.69,0,0,1,.29-.63.91.91,0,0,1,.73.25,5.89,5.89,0,0,1,.65,1,6,6,0,0,1,.65-.62s.32.17.32.26a3.29,3.29,0,0,1-.25.79,26.49,26.49,0,0,0,3,.57,1.63,1.63,0,0,0,1.71-1.09A1.7,1.7,0,0,0,61.15,79a3.24,3.24,0,0,0-2.7-1.37c-.23,0-.46-.2-.69-.31a4.63,4.63,0,0,1,.59-.45,17.53,17.53,0,0,0,1.86-1c1.14-.82,1.2-2.37.07-2.89A3.71,3.71,0,0,0,58,72.78a5.47,5.47,0,0,0-3.24,2.4A3.06,3.06,0,0,1,54.07,75.75ZM90,33.56c.33-.06.86-.26.89.49a2.6,2.6,0,0,1-.1.55,6,6,0,0,1-.5-.4,3.53,3.53,0,0,1-.33-.43l-.15.07c0,.32,0,.63,0,.94.92.13,1.26.53,1.18,1.34.71.18.83.07.8-.76.54-.14.8-.43.54-1a.49.49,0,0,1,0-.38,2,2,0,0,0-.17-2.12c-.43-.73-.93-1.41-1.49-2.25a6,6,0,0,1,.76.17,3.94,3.94,0,0,1,2.28,4.44,3.9,3.9,0,0,0,0,.94c0,.22.08.43.12.65l-.26.17,1.15.64-.3.37a2.08,2.08,0,0,0,1.69-1.92c0-.66.09-1.31.06-2a4.2,4.2,0,0,0-1-3c-2-2-4.18-3.57-7.23-2.75a6.94,6.94,0,0,0-3.45,1.77c-.34.36-.71.68-1,1.05-.18.21-.46.55-.4.7.23.53,0,.85-.39,1.2.7-.65,1,.15,1.49.3.12,0,.18.25.26.39-.18.05-.41.2-.52.14s-.26-.34-.35-.47l-.74.51,1,.56-.1.24-1.16-.18,0,.21.55.22c.07.59.13,1.12.17,1.52a11.52,11.52,0,0,1,1.54,1,1.51,1.51,0,0,0,1.63.29A3.62,3.62,0,0,0,88.33,33a8.69,8.69,0,0,0-1.45-2.93.76.76,0,0,1-.07-.66.73.73,0,0,1,.62-.31c.18.05.29.37.47.64.13.07.53.18.53.29,0,.67.5.64.89.75s.63.16.25.56c0,0-.09.13-.08.18C89.66,32.19,89.83,32.85,90,33.56ZM88,66.19a1.88,1.88,0,0,1-.49-2.48c.08-.16.41-.18.64-.28-.23-.28-.53-.4-.83,0-.47.58-.54.11-.68-.14l1.08-1.49c-.68-.26-.69-.33.1-1.1a4.57,4.57,0,0,0-.9,0,7.68,7.68,0,0,0-5.13,4.63c-1.48,3.23-.81,6.42.42,9.61.37,1,1.6,1.17,1.6,2.39,0,.44.71.87,1,1.2l.89-.17c0,.28,0,.56,0,.93l.49-.06a12,12,0,0,0,0-1.24c0-.43,0-.69.53-.65.11,0,.24-.18.36-.28a1.21,1.21,0,0,0-.63.09.26.26,0,0,1-.3-.4c.25-.38.52-.74.75-1.06L85.94,75,87,74.64,86.61,74l-.78.2c0-.24,0-.48.06-.72l.68.07a2.2,2.2,0,0,0,.5,0s.1-.19.1-.29c0-.31,0-.63,0-.95a2.85,2.85,0,0,1-.58.27,1.26,1.26,0,0,1-.5-.08,3.32,3.32,0,0,1,.19-.46,4.33,4.33,0,0,1,.46-.67c.11-.12.33-.3.42-.26a.76.76,0,0,1,.32.44c0,.1-.07.24-.12.4.75-.23.76-.92.07-1.64l-.12,0a2.79,2.79,0,0,1-.55.14.77.77,0,0,1-.11-.35,3.15,3.15,0,0,1,.52-.2l.82-.27c0-.37,0-.61,0-.85L89,69c-.25-.22-.37-.41-.52-.44-.45-.09-.91-.1-1.35-.18-.14,0-.25-.2-.38-.31.14-.09.28-.26.42-.26a4.69,4.69,0,0,1,.74.12,2.22,2.22,0,0,0,.45-.05c-.63-.63-1.18-1.15-1.69-1.71-.11-.12-.09-.37-.14-.55a1.7,1.7,0,0,1,.63,0A5.59,5.59,0,0,1,88,66.19ZM26.07,77.8a2.9,2.9,0,0,0,.39,0c1.11-.17,2.23-.3,3.32-.55a1.83,1.83,0,0,0,.86-.73c.09-.12-.14-.43-.11-.64a.82.82,0,0,1,.35-.48,2.45,2.45,0,0,1,.71-.17c-.8-.44-.8-.44-.07-1.14l-.84-.32.07-.35,1.16.07,1.19-1-.57-.22c.52-.42,1-.78,1.41-1.12a.24.24,0,0,1,.2,0c.41.2.64,0,.84-.34.35-.63.72-1.22,1.57-1.3.3,0,.58-.34.88-.53a.59.59,0,0,0-.36-.14c-.21,0-.41-.11-.61-.16.14-.18.3-.35.43-.54a1.32,1.32,0,0,0,.27-.49,2.56,2.56,0,0,1,1.29-2c.43-.24.88-.47,1.39-.74l-2.17-1.5c-.7.43-.71.42-.83-.31,0-.09-.34-.22-.43-.17a2.44,2.44,0,0,0-.57.49c-.44.44-.75.28-1.06-.18l.56-.44a2.09,2.09,0,0,0-3.12,1.26,5.76,5.76,0,0,0,.67,3.24,8.11,8.11,0,0,1,.21.81,3.63,3.63,0,0,1-.83.06,2.8,2.8,0,0,0-3.55,3,4.09,4.09,0,0,0,.9,2.6c.28.35.19.5-.22.63a11.08,11.08,0,0,0-2.13.78A2.22,2.22,0,0,0,26.07,77.8Zm26-14a10.92,10.92,0,0,1-1.62-1.42,1.33,1.33,0,0,1,0-1.19c.11-.22.89-.39,1-.26.6.68,1.18.21,1.78.14A.74.74,0,0,1,54,62.12a2.35,2.35,0,0,1-.58.67c-.16.17-.45.3-.47.47-.14,1-.21,1.92-.31,3a4.34,4.34,0,0,0,2.9-1.62,5.52,5.52,0,0,0,.8-3.9,4,4,0,0,0-1.48-2.77,10.16,10.16,0,0,0-3.37-1.67,1.42,1.42,0,0,0-.76,0,4.78,4.78,0,0,0-3.45,3.47,5.32,5.32,0,0,0,.31,4,3.74,3.74,0,0,0,2.6,2.38.83.83,0,0,0,1.09-.49C51.56,65,51.79,64.36,52,63.77Zm-6.6,5.79.17-.16c-.42-.34-.82-.94-1.25-1a12,12,0,0,0-3.32.29,14.24,14.24,0,0,0-7.62,4.65,12.48,12.48,0,0,0-3.1,7.36,35.54,35.54,0,0,0,.21,4.19,8.19,8.19,0,0,0,1.78,4.86c.85,1,1.78,2.12,3.52,1.49a1.16,1.16,0,0,0-.48-.36,4.83,4.83,0,0,1-2.59-3,15.15,15.15,0,0,1-.87-8.13A12.74,12.74,0,0,1,36,72.55,11.94,11.94,0,0,1,40.41,70,8.73,8.73,0,0,1,45.43,69.56ZM28.1,82.17c-.6-.15-1.14-.31-1.68-.41-1.26-.24-2.52-.52-3.79-.66a3.5,3.5,0,0,0-2.05.22,13.88,13.88,0,0,0-3.09,2.49c-1.23,1.38-1.08,2.8.2,4.35a18.67,18.67,0,0,1,2-1.88,17,17,0,0,1,6-2.8c.2-.05.5-.08.57-.22.41-.79,1-.75,1.61-.35,0,0,.13,0,.22,0ZM26.75,62.1a10.88,10.88,0,0,1,.19,1.18,3.51,3.51,0,0,1-.08,1.26c0,.14-.54.13-.82.19,0,0-.07.06-.31.27a9.53,9.53,0,0,1,1.07.21,2.17,2.17,0,0,1,.49.33c-.47.56.08.86.32,1.23.42.64,1.17,1.14.8,2.08,0,0,0,.11.11.27a3.45,3.45,0,0,1,3.66-1.58,8.87,8.87,0,0,1-.49-1.35,4.36,4.36,0,0,1-.08-2.5c.35-1,1.1-1.36,1.89-1.91-1.73-.34-3.48-.58-5.22-.81-.35,0-.62,0-.36.5s0,.61-.39.66A4.89,4.89,0,0,1,26.75,62.1ZM48.26,78.62c-.44-.74-1.36-.75-2.15,0a8.75,8.75,0,0,0-2.52,6.9,3.84,3.84,0,0,0,.56,1.56,1.2,1.2,0,0,0,1.55.55c-.07-.4-.12-.8-.2-1.19a6,6,0,0,1-.25-.87A5.78,5.78,0,0,1,47.86,80a2.6,2.6,0,0,1,.74-.22l.1.22-.82,1c.44.49.44.49-.29,1a2.26,2.26,0,0,1,.21.16,2.34,2.34,0,0,1,.38.42s-.19.29-.24.27a2.22,2.22,0,0,1-.53-.29c-.13-.09-.26-.19-.38-.29.18.43.59.77.59,1.12,0,.53.16.65.63.66.13,0,.26.31.39.48a2.22,2.22,0,0,1-.55.13c-.13,0-.26-.11-.44-.19.15,1-.08,1.35-1.17,1.73l-.3,1c.18,0,.44.15.57.06a4.72,4.72,0,0,0,1.44-1.07,6.53,6.53,0,0,0,.46-7,6,6,0,0,1-.75.25c-.05,0-.23-.25-.21-.27A7.41,7.41,0,0,1,48.26,78.62ZM9.57,56.51l-1,2.3,0,.21c1-.61,1.15.23,1.57.7-.51.38-.75.21-.85-.33l-.47.17-.47.18a2.6,2.6,0,0,0,.39.51c.3.24.65.44,1,.66l0-.21.88.11c-.29.51-.58,1-.89,1.53a3.45,3.45,0,0,1-.4-.19l.3-.56a1.09,1.09,0,0,0-1.54-.18c.47.44,1.29.74.59,1.59.15.09.24.19.35.2s.41,0,.6,0a.85.85,0,0,1,.38.24.27.27,0,0,1-.06.24.84.84,0,0,1-.45.06c-.11,0-.2-.17-.3-.25-1,.74-1,2,0,3.16.47-.37,1-.71,1.41-1.12a6.44,6.44,0,0,0,1.23-1.41c.7-1.25,1.09-2.17.24-2.93C13,60.18,11.62,57.6,9.57,56.51ZM29,89a8.23,8.23,0,0,0,.73-.82,1.61,1.61,0,0,0,.28-.75,3.09,3.09,0,0,0-.16-1,3,3,0,0,0-.47.07,6.13,6.13,0,0,1,.15.81s-.31.16-.35.12a5.9,5.9,0,0,1-.54-.66c-1.9.31-5.08,3.24-5.83,5.25a11.54,11.54,0,0,0,1.46.2c1.45,0,2.85-.14,3.67-1.6.07-.13.36-.16.56-.18.69-.08,1-.63,1.39-1ZM91.9,49.67c1.34-.57,1.11-1.83,1.43-2.79a18.53,18.53,0,0,0,.45-3.62,7,7,0,0,0-1.9.58,5.32,5.32,0,0,0-2.14,3c0,.12.08.31.18.42s.35.58,0,.65c-.63.12-.45.52-.48.89.32.19.92.18.57.79s-.12.63.39.62a2.18,2.18,0,0,1,.5.1l.59-.56L91,49.34C91.69,48.7,91.72,49.55,91.9,49.67ZM4.7,75.52A8.36,8.36,0,0,0,8,80.16l.81-.38a2.22,2.22,0,0,0,.67-.3c1.34-1.34,1-2.92.66-4.55A12.2,12.2,0,0,1,4.7,75.52Zm14.17,3.16c-.19-.36-.29-.83-.57-1a26.77,26.77,0,0,0-2.38-1.37s-.12.06-.18.08l-.61.12c0-.21,0-.42,0-.66l-1.18-.54c.22.52.41,1,.62,1.48.1.22.33.44.31.62s-.32.3-.46.41l.76.76-.91.68c-.05,0-.13-.12-.21-.12-.3,0-.7-.08-.88.08a1.61,1.61,0,0,0-.42.92c.54.39.14.8.11,1.2A3,3,0,0,0,13,82l.93-.43a5.45,5.45,0,0,1-.43-.63c-.07-.14-.13-.4-.06-.48a9.25,9.25,0,0,1,.86-.79c.08.1.21.21.21.31a2.1,2.1,0,0,1-.18.54l.36.39,1.08-.37-.29,1.13.39.42c0-.41,0-.74.12-.94s.51-.87,1-.12l.21-.81a1.88,1.88,0,0,1-.6-.23c-.08-.07,0-.3,0-.45h.79ZM45.67,68.5l.3.14c.09-.24.32-.54.25-.69a2.34,2.34,0,0,0-.71-.72,3.11,3.11,0,0,0-.6-.31c.08-.12.2-.37.24-.36.46.12,1.09.16,1.34.48a1.58,1.58,0,0,0,1.48.72c-.28-.68.12-.84.75-.85A4.55,4.55,0,0,1,45.9,64l-.9-.27.65-.84c-.51.15-.9.24-1.26.39-.8.32-1.33,0-1.44-1-.12.2-.29.4-.26.43.59.7-.14.72-.46.92-.22.94.5,1,1.14,1.13-.12.52-.27.68-.75.34a2.93,2.93,0,0,0-.9-.29c.64.69,1.3,1.42,2,2.11.38.38.82.69,1.23,1l.07-.32c.22-.06.49-.22.66-.15C46.29,67.8,45.95,68.17,45.67,68.5ZM45.85,54c-1-.1-2-.22-3.08-.29-.2,0-.56.14-.58.27-.23,1.06-.41,2.14-.57,3.22-.05.35.15.56.54.56,1,0,2.05,0,3.08,0a.6.6,0,0,0,.4-.41C45.74,56.24,45.79,55.13,45.85,54Zm-16.43,4.9a7,7,0,0,1,1.15.85c.42.46.76.45,1.06,0a7.42,7.42,0,0,1,3.14-3.16l-2.46-1.66a.74.74,0,0,0-1.15.17c-.57.84-1.1,1.71-1.62,2.58a.53.53,0,0,0,0,.49C30,58.66,29.7,58.83,29.42,58.92Zm11.32-1.18.74-4.17c-1-.11-1.94-.2-2.89-.31-.39,0-.66.09-.72.47-.14.95-.27,1.9-.34,2.85,0,.22.2.62.37.66C38.89,57.46,39.88,57.6,40.74,57.74Zm-9.93-3.47a8.2,8.2,0,0,0-4.72.49l.35.82-.65.14c-.77,1.35.43,1.53,1.3,1.84-.45,1-.91,0-1.48.12.15.23.21.44.34.5.54.24.43.5.17.68l1.26.44c-.73-1.51.76-1.21,1.52-1.56l-.2-.13ZM4.8,70.85a7.18,7.18,0,0,0-.31,3.5.68.68,0,0,0,.44.42,8.1,8.1,0,0,0,4.61-.27,3.38,3.38,0,0,0,.64-.42c-1.5-.64-1.5-.64-1-1.48C7.64,72.25,6.06,72,4.8,70.85ZM60.16,53.26c.07,1,.13,1.78.18,2.59,0,.35.07.67.55.61.91-.12,1.82-.21,2.72-.34.14,0,.36-.22.36-.33a23.61,23.61,0,0,0-.16-2.55.75.75,0,0,0-.6-.42C62.18,52.92,61.14,53.11,60.16,53.26Zm-2.4,3.43H59c.43,0,.67-.21.66-.62,0-.72-.06-1.44-.1-2.15,0-.44-.25-.61-.7-.56-1,.11-1.91.17-2.86.31a.63.63,0,0,0-.39.47c.05.86.18,1.71.28,2.6h.56l.54-.67Zm-31.1-6c-.59-.29-1.29-.65-2-1a.62.62,0,0,0-.57.15A13.92,13.92,0,0,0,22.75,52c-.44,1-.24,1.3.79,1.66.31.11.63.19.93.31.57.23.87,0,1.07-.53C25.89,52.56,26.27,51.67,26.66,50.7Zm37.72,2c.12.92.28,1.78.32,2.66,0,.56.25.63.7.51a12.85,12.85,0,0,1,2-.5c.86-.09,1-.58.93-1.29a9.44,9.44,0,0,0-.42-1.62.62.62,0,0,0-.51-.3C66.33,52.29,65.31,52.5,64.38,52.67Zm8.35.9c.92-.41,1.8-.78,2.66-1.2a.66.66,0,0,0,.3-.54c-.22-1-.51-1.9-.8-3l-3.14,1.93Zm-64,18.32h.66l-.34-.57s0,0,0-.05C8.68,70,7.5,69.51,6.72,68.65a1.89,1.89,0,0,0-.7-.4,2.29,2.29,0,0,0-.57-.07l.39-.53-1.4-1.89A5.81,5.81,0,0,0,4,66.7c-.25,1.19.58,2.07.95,3.08a6.12,6.12,0,0,0,.88,1.29l.13-.2.8-.37.11.19-.39.73c.25,0,.44,0,.52-.1.37-.38.65-.58.73.18,0,.09.21.17.22.17l.6-.54Zm9.62,9.51c.37-.4.74-.81,1.12-1.2a1,1,0,0,1,.39-.24c.3-.1.63-.12.92-.24a17,17,0,0,1,2.77-1.15c1.3-.27,2-.85,1.9-2.22,0,0,0-.06,0,0-1.87,1.5-4.07,1.42-6.42,1.27l.48.63c.14-.09.22-.17.31-.17s.42,0,.62,0c0,.2,0,.48-.15.6a2.84,2.84,0,0,1-1,.7,2,2,0,0,0-1.48,1.4Zm1.15-30.7c0,.12-.1.48,0,.57.71.56,1.47,1.07,2.19,1.57.3-.75.5-1.37.81-1.94s.73-1.11,1.14-1.71c-.71-.45-1.39-.89-2.09-1.31a.45.45,0,0,0-.43,0c-.49.62-1,1.25-1.43,1.89l.26.06.45.58Zm58-4.13a17.35,17.35,0,0,1-1.51,1.36c-.6.42-.8.8-.44,1.54a16.07,16.07,0,0,1,.77,2.39l1.9-1.4a.49.49,0,0,0,.17-.28A4.33,4.33,0,0,0,77.58,46.57Zm1.06.13c.15.22.42.44.39.6-.2,1-.1,1.26.7,1.69,1.66-1.56,1.89-4.31.45-5.45-.3.39-.58.78-.89,1.16s-.65.73-.9,1Zm-58,.48a13.06,13.06,0,0,1-1.27-1.08c-.38-.41-.68-.26-.92.06a9.32,9.32,0,0,0-1.06,1.63,1.93,1.93,0,0,0,1.26,2.69ZM69,54.88c.68-.22,1.32-.41,2-.63,1.17-.41,1.18-.42.77-1.59a.71.71,0,0,0-.32-.35c-.32-.17-.48-.32-.22-.69s0-.58-.33-.5c-.85.2-1.69.48-2.51.73ZM36.73,56.65c.17-.85.41-2,.6-3.16,0-.13-.22-.39-.38-.43a10,10,0,0,0-1.59-.25c-.28,0-.79,0-.83.13-.15.53-.42,1.32-.18,1.62A19,19,0,0,0,36.73,56.65Zm13.14-2.9c-.13.47-.38,1-.75.58-.64-.8-1.39-.4-2.09-.45a.46.46,0,0,0-.37.24,8.09,8.09,0,0,0-.24,3.84,4.48,4.48,0,0,1,.49-.56,23,23,0,0,1,2.55-1.92C50.21,55,50.44,54.6,49.86,53.75Zm1,1.37a6.65,6.65,0,0,1,4.52,1.17c-.12-.85-.2-1.5-.33-2.13,0-.16-.23-.41-.36-.42-1.27,0-2.55,0-3.83,0C50.82,54.29,50.82,54.65,50.82,55.11Zm-14.6,5.17a3.5,3.5,0,0,1-.39-.79,8.29,8.29,0,0,1-.05-1.13l-.25.16-1-.38.07-.24.71-.14a.55.55,0,0,0-.93-.24,4.9,4.9,0,0,0-2,2.43l.4.31c.31.27.61.69,1,0a.45.45,0,0,1,.43-.07c.11.07.14.28.21.43s.11.19.15.25c.15-.32.2-.65.38-.77s.45.09.69.13A5.1,5.1,0,0,0,36.23,60.28Zm11-48.84.72.77c-.48.29-.19.66-.06,1,.28.68.61,1.33.92,2,.17-.14.22-.23.19-.26-.29-.39-.43-.71.25-.8a.31.31,0,0,0,.18-.19c.34-1,.66-2,1-3l-.92-.49-.39.95c-.08.18-.18.36-.24.55a2.38,2.38,0,0,0-.05.46l-.57-.06.18-.17-.83-1.69h-.17ZM26.07,53.53c1-.18,1.76-.34,2.51-.44,1.13-.16,1.25-.28,1.27-1.51-.64-.17-1.29-.37-1.95-.49a.83.83,0,0,0-.7.22C26.8,52,26.49,52.69,26.07,53.53Zm1.48,26.58c-.17-.56-.39-.71-.88-.64a2.29,2.29,0,0,1-.58-.05,2,2,0,0,0-.71-.09c-.91.25-1.8.55-2.7.84a.38.38,0,0,0-.12.09l5.7,1.2a2.3,2.3,0,0,0-.29-.57.58.58,0,0,0-.49-.19c-.61.25-.82,0-.86-.66ZM43.69,14.49a3.54,3.54,0,0,0,.75-3.67c-.7.45.11.76.09,1.16-.09,0-.23.15-.27.12-.34-.22-.66-.48-1-.7l-1.59.41.08.2c.62,0,1.25,0,1.87,0,.09,0,.17.2.38.45H42.11l-.11.2,1.38,1.55s-.06,0-.06.11a1.33,1.33,0,0,0,.09.67c.07.11.37.06.57.09l0-.2Zm9.93.39.11.22c.18-.09.48-.14.53-.28.39-1.07.74-2.15,1.1-3.23-.82-.61-.87-.59-1.08.31a.74.74,0,0,1-.4.45.78.78,0,0,1-1.1-.9c.13-.77-.29-.61-.78-.58.43,1.07.84,2.1,1.28,3.13,0,.1.25.12.39.18l.44.19ZM23.34,58.69l1.72.37c0-1.32,0-2.52,0-3.73A3,3,0,0,0,23.34,58.69Zm10.6-6.13c-.87-.23-1.65-.45-2.43-.64-.94-.23-1.2,0-1.09,1,.54.16,1.08.3,1.6.5s1,.46,1.55.72Zm22.51,29.3a12.39,12.39,0,0,0,.65,1.75,1,1,0,0,0,.8.3.81.81,0,0,0,.76-.92.93.93,0,0,0-.51-.6A16.19,16.19,0,0,0,56.46,81.86Zm3.07,1.48c-.58.67-1,1.26-2,1.17a.36.36,0,0,0-.28.21.38.38,0,0,0,.16.32c.37.19.76.35,1.15.51a.6.6,0,0,0,.92-.52A12.65,12.65,0,0,0,59.53,83.34ZM41.46,67.24,40,65.7c-1.89.91-1.89.91-1.84,2.4a6.58,6.58,0,0,0,.48-.68c.38-.74.58-.81,1.3-.42a1.29,1.29,0,0,0,.4.09Zm15.32,3.17-.58,2.44c.4-.2.73-.36,1.06-.54s.88-.34.95-.61c.17-.64-.48-.81-.92-1C57.16,70.58,57,70.52,56.79,70.42Zm-30.2,4.43,2-1L28,72.32a10,10,0,0,1-.94,1.11A1.27,1.27,0,0,0,26.59,74.85Zm-10-27.19,1.88-2.46-.59-.66A3.18,3.18,0,0,0,16.55,47.65ZM6.09,64.22l.21-.14c-.2,0-.43-.11-.58,0-.64.35-.85.09-.79-.63l-.26.12.22,1.7,1.16-.12.1.16L5.66,66a.83.83,0,0,0,.67-.33c.08-.15,0-.41-.07-.62S6.15,64.49,6.09,64.22ZM59.48,77l1,.57c.52.3.88.11.84-.49a4.37,4.37,0,0,0-.32-1Zm-45.9,1.1c-.33-.35-.61-.52-.91.05-.05.1-.37.06-.57.09a1.71,1.71,0,0,1,.07-.56c.08-.17.32-.26.4-.43a1.42,1.42,0,0,0,0-.54,1.37,1.37,0,0,0-.45.19c-.76.72-.22,1.44,0,2.19ZM51.2,68.94a1.23,1.23,0,0,0-1.77.12l1,1.05ZM81.67,45.23a2,2,0,0,0-.38-2.38,1.11,1.11,0,0,0-.55-.13.46.46,0,0,0-.08.29C81,43.77,81.35,44.53,81.67,45.23Zm-29.12,43L52.38,88c-.74.58-1.44.13-2.29-.25.29.87.79,1.32,1.34,1.33C51.8,89.05,52.18,88.5,52.55,88.2Zm-.61-2-.28.08L51,87.4c.59.4,1.05.22,1.25-.24C52.37,86.93,52.07,86.53,51.94,86.2ZM59,71l.32-.87A1.32,1.32,0,0,0,57.57,70Zm-7.87-3c-.43-.65-.84-1-1.2-.74a3.54,3.54,0,0,0-.7.9ZM16.56,52.42c.54,0,1.29-1.13,1.45.34l.88-.5c-.76-.08-1.25-.38-1.34-1.11-.09.27-.11.64-.25.69s-.51-.07-.77-.12ZM7.17,68.14l.19-.07c0-.32,0-.63,0-1-.68.34-.84-.11-.9-.75l-.56.5Zm55,8.48-.46,1.59,1.46-.71Zm-13.46-.07-.18.23.63.49.23.94.17,0c0-.48,0-1,0-1.45ZM79.2,38.89l.05.19,1.41.12c-.26-.37-.46-.85-.59-.83A2.77,2.77,0,0,0,79.2,38.89Zm-.48-14.65.87.79c.07-.3.16-.64.23-1a.34.34,0,0,0-.08-.28c-.06,0-.2,0-.28,0C79.22,23.93,79,24.08,78.72,24.24ZM35.64,77.11l0,1.17c.21-.1.5-.14.62-.3C36.5,77.6,36.3,77.34,35.64,77.11Zm12.61-2.36c.83-.72.55-.78-.34-1.51ZM14.8,52.31l.1-.16c-.62-.14-.84-1.28-1.8-.6Zm46.93,6.31c-.77-.16-1.52-.24-1.93.58Zm19-28.11c0-.44,0-.69,0-1.12l-1,.86Zm-63.25.1-1.39-.41,0,.13,1,.79Zm31.85-5.75,1.3-.22C49.9,24.09,49.45,23.94,49.31,24.86Zm-8.05,39,1-.66L42.09,63C41.83,63.25,41.2,62.92,41.25,63.86Z" transform="translate(-2.85 -2.05)"/><path class="cls-1" d="M37.09,35.83l.88.69-.47.56c.13.4.2,1,1,.81.14,0,.35.24.54.38.85-.31.91-.28,1,.37l1.07,0a.83.83,0,0,1,.06-.37c.17-.3.58-.39.63-.06.14,1,.88.72,1.35.83.06-.2.06-.5.17-.55a.67.67,0,0,1,.6.08c.27.29.44.41.7,0,.06-.09.22-.13.35-.17.66-.18,1.32-.35,2-.54a8.56,8.56,0,0,1,.84-.34c.6-.11,1-.31.78-1,.47-.24,1.16,0,1.31-.66l-.75-.64.65-.57c-.6-.66-1.28-1.32-1.86-2.07a2.66,2.66,0,0,1-.54-1.35c0-.3.31-.87.54-.91a2.72,2.72,0,0,1,1.37.3c.23.1.37.4.52.58A12.81,12.81,0,0,1,51.18,30c.84-.61,1.66-.22,1.85.81a2.74,2.74,0,0,1-.65,2.15c-.44.61-.93,1.17-1.39,1.76a1.5,1.5,0,0,0-.17.35,5.33,5.33,0,0,1,.81.06c.06,0,.14.33.1.35a6.92,6.92,0,0,1-.78.37l.63.72.87-.47.22.75c.65.26,1.45.53,2.21.89.58.28.91-.19,1.32-.36s.57-.35.74,0-.2.35-.45.4c-.09,0-.13.24-.19.36a1.49,1.49,0,0,0,.36.12c.3,0,.61,0,1,0l-.2-.61c.48-.34.48-.34,1.08.66.74,0,1.39-.74,2.17-.24l.22-.57a.61.61,0,0,1-.54-.6c.14,0,.32-.16.41-.11.42.24.59,0,.84-.3a2.46,2.46,0,0,1,1-.77c.61-.24.61-.75.76-1.22l.12-.41.46.13c-.16.63-.3,1.16-.43,1.69a5.18,5.18,0,0,1-3.33,3.79l-.32.15c.11.1.23.16.24.23a2.82,2.82,0,0,1-.05.51,2.49,2.49,0,0,1-.56-.17c0-.61-.39-.57-.75-.56-.56,0-1.12.09-1.68.13a.61.61,0,0,1-.39-.08,19.28,19.28,0,0,0-4.21-2.12,4.16,4.16,0,0,0-3.94.32c-1.36.72-2.76,1.39-4.17,2a7.3,7.3,0,0,1-1.57.33.41.41,0,0,1-.21,0c-.62-.23-.94,1-1.47.42s-1-.43-1.49-.61a4.47,4.47,0,0,1-2.64-2.91C36.74,36.89,36.36,36.36,37.09,35.83Z" transform="translate(-2.85 -2.05)"/><path class="cls-1" d="M41.31,27.07a3.3,3.3,0,0,1-.82-.37,8,8,0,0,0-6.39-1.88,26.74,26.74,0,0,0-3.75.85,2.18,2.18,0,0,1-1.08,0,.85.85,0,0,1-.33-1.35c1.24-1.68,3-2,4.93-1.88a10.32,10.32,0,0,1,5.75,2.18A3.46,3.46,0,0,1,41.31,27.07Z" transform="translate(-2.85 -2.05)"/><path class="cls-1" d="M58,26a5.23,5.23,0,0,1,2.08-2.41A11.12,11.12,0,0,1,67.28,22a3.24,3.24,0,0,1,2.59,1.34c.32.54.58,1.1.13,1.67s-1,.53-1.76.06a8,8,0,0,0-7.4-.51,10.45,10.45,0,0,0-1.6,1.1c-.34.22-.72.38-1.08.56Z" transform="translate(-2.85 -2.05)"/><path class="cls-1" d="M19.66,34.69c2.23-.64,4.4-1.54,6.79-.86.11,0,.24,0,.34.06s.43.18.65.28c-.14.32-.22.83-.45.91a7,7,0,0,1-1.78.25c-.94.07-1.88.1-2.77.15a6.74,6.74,0,0,1,.1,1s-.38.15-.41.1a4.76,4.76,0,0,1-.34-.76c-.51.33-1.07.66-1.59,1-.13.1-.09.4-.16.6s-.12.35-.22.38a.67.67,0,0,1-.47-.12c-.13-.08-.18-.28-.3-.37-.9-.65-.94-1.26-.13-2l.51-.45a3.29,3.29,0,0,1-.73-.33,1.71,1.71,0,0,1-.3-.53c.21-.07.47-.25.62-.19C19.41,34,19.91,34.12,19.66,34.69Z" transform="translate(-2.85 -2.05)"/><path class="cls-1" d="M26.8,37.07a2.25,2.25,0,0,1,.46-.42c.07,0,.32.11.32.18a1.67,1.67,0,0,1-.15.51c0,.1-.12.21-.12.31,0,.78-.46.94-1.08,1a6,6,0,0,0-4.71,2.23,2.62,2.62,0,0,1-1.39.71.82.82,0,0,1-.87-1.18,3.4,3.4,0,0,1,2-1.86c1.37-.53,2.78-.93,4.18-1.38.13,0,.31-.05.38-.14C26.22,36.48,26.52,36.7,26.8,37.07Z" transform="translate(-2.85 -2.05)"/><path class="cls-1" d="M19.94,32l.66.5a4.61,4.61,0,0,1,.91-.1c.07,0,.21.43.16.46a4,4,0,0,1-.71.37l.6.68c-.65.16-1.07.17-1.28-.45a1.61,1.61,0,0,0-.36-.57.54.54,0,0,1,0-.9Z" transform="translate(-2.85 -2.05)"/><path class="cls-1" d="M79,27.68l-1.43,1.11c-.08-.14-.25-.37-.21-.42a5.43,5.43,0,0,1,.95-1c.14-.1.45,0,.68.06Z" transform="translate(-2.85 -2.05)"/><path class="cls-1" d="M37.47,49.65c-.12.16-.21.36-.27.35a1.64,1.64,0,0,1-.69-.24,1.3,1.3,0,0,1-.36-.55.79.79,0,0,1,0-.51.43.43,0,0,1,.38-.18c.13.07.2.27.29.41a3.93,3.93,0,0,0,.3.44A2.68,2.68,0,0,0,37.47,49.65Z" transform="translate(-2.85 -2.05)"/><path class="cls-1" d="M18.95,37.57a2.76,2.76,0,0,1-.4.43,2.5,2.5,0,0,1-.72.34.6.6,0,0,1-.51-.17.53.53,0,0,1,.11-.5,1.25,1.25,0,0,1,.67-.34A2.76,2.76,0,0,1,18.95,37.57Z" transform="translate(-2.85 -2.05)"/><path class="cls-1" d="M77.46,33.13a1,1,0,0,1-1.39-.49.4.4,0,0,1,.15-.35.49.49,0,0,1,.43,0A11.4,11.4,0,0,1,77.46,33.13Z" transform="translate(-2.85 -2.05)"/><path class="cls-1" d="M32.22,43.51a9.8,9.8,0,0,1,1.19-.3c.13,0,.28.18.42.28-.12.11-.23.31-.36.33C33.07,43.86,32.58,44.31,32.22,43.51Z" transform="translate(-2.85 -2.05)"/><path class="cls-1" d="M60,37.11c-.28.17-.47.34-.52.31a12.47,12.47,0,0,1-1.07-.87,1.59,1.59,0,0,1,.2-.28C59,36.52,59.42,36.78,60,37.11Z" transform="translate(-2.85 -2.05)"/><path class="cls-1" d="M78,41.61c-.15.46-.23.75-.36,1a.45.45,0,0,1-.3.24.53.53,0,0,1-.34-.17,3.76,3.76,0,0,1,.33-1.05C77.35,41.55,77.72,41.62,78,41.61Z" transform="translate(-2.85 -2.05)"/><path class="cls-1" d="M39.26,50.2c-.28.21-.42.41-.56.41-.58,0-.48-.53-.59-.87,0-.07.37-.35.39-.33A8.84,8.84,0,0,1,39.26,50.2Z" transform="translate(-2.85 -2.05)"/><path class="cls-1" d="M70.93,47l.2-1a3.9,3.9,0,0,1,.68.16s0,.28,0,.42a1.24,1.24,0,0,1-.19.4c-.09.11-.24.29-.32.28A.76.76,0,0,1,70.93,47Z" transform="translate(-2.85 -2.05)"/><path class="cls-1" d="M47.62,28a11.68,11.68,0,0,1,.65,1s-.22.21-.33.32a8.81,8.81,0,0,1-.69-.78S47.42,28.23,47.62,28Z" transform="translate(-2.85 -2.05)"/><path class="cls-1" d="M45.63,30.51A12,12,0,0,1,47,30.12c.1,0,.25.21.38.32a8.85,8.85,0,0,1-1.1.46C46.13,30.93,46,30.72,45.63,30.51Z" transform="translate(-2.85 -2.05)"/><path class="cls-1" d="M49.37,27a4.3,4.3,0,0,1-.06.92c0,.11-.28.16-.42.23a1.27,1.27,0,0,1-.18-.38,1.32,1.32,0,0,1,0-.58.56.56,0,0,1,.32-.34C49.18,26.8,49.33,27,49.37,27Z" transform="translate(-2.85 -2.05)"/><path class="cls-1" d="M78.37,36.72l-1.11.58c0-.35-.06-.76,0-.78a5.12,5.12,0,0,1,1-.14Z" transform="translate(-2.85 -2.05)"/><path class="cls-1" d="M61.71,34.68l1.17.51-.32.27c-.29-.34-1,.28-1.08-.42C61.46,34.94,61.62,34.81,61.71,34.68Z" transform="translate(-2.85 -2.05)"/><path class="cls-1" d="M51.3,27.3l-.6.54c-.12-.16-.38-.36-.35-.49a.88.88,0,0,1,.45-.47C50.87,26.85,51.07,27.1,51.3,27.3Z" transform="translate(-2.85 -2.05)"/><path class="cls-1" d="M18.61,33.35c-.29.21-.46.41-.63.42s-.3-.21-.46-.32c.13-.16.25-.43.41-.46S18.29,33.17,18.61,33.35Z" transform="translate(-2.85 -2.05)"/><path class="cls-1" d="M34.94,49.28l-.47-.5c.2-.12.39-.32.6-.33s.32.22.48.34Z" transform="translate(-2.85 -2.05)"/><path class="cls-1" d="M29.19,39.88c.22.25.43.38.47.55s-.21.27-.33.41a3.11,3.11,0,0,1-.48-.49S29,40.12,29.19,39.88Z" transform="translate(-2.85 -2.05)"/><path class="cls-1" d="M27.85,29.45c.32,0,.64,0,.95.08,0,0,.09.35,0,.39-.41.3-.72.07-1-.23Q27.84,29.58,27.85,29.45Z" transform="translate(-2.85 -2.05)"/><path class="cls-1" d="M21.79,43.51c-.28.2-.45.41-.57.38s-.31-.25-.47-.38c.14-.12.28-.32.43-.34S21.49,43.34,21.79,43.51Z" transform="translate(-2.85 -2.05)"/><path class="cls-1" d="M23.24,45.75a2.08,2.08,0,0,1,.25.63c0,.11-.26.34-.35.32a.94.94,0,0,1-.48-.37s.17-.26.26-.39Z" transform="translate(-2.85 -2.05)"/><path class="cls-1" d="M52.45,27.81c-.24.16-.39.34-.49.32s-.29-.21-.43-.33c.13-.14.25-.35.39-.38S52.2,27.62,52.45,27.81Z" transform="translate(-2.85 -2.05)"/><path class="cls-1" d="M21.66,28.7l.06.75-.61-.06.18-.72Z" transform="translate(-2.85 -2.05)"/><path class="cls-1" d="M40.68,27.56,41,28a1.89,1.89,0,0,1-.52.39c-.07,0-.24-.26-.36-.41Z" transform="translate(-2.85 -2.05)"/><path class="cls-1" d="M37.7,47.11l.54.6c-.13.11-.28.33-.38.31a.67.67,0,0,1-.39-.37C37.42,47.55,37.57,47.38,37.7,47.11Z" transform="translate(-2.85 -2.05)"/><path class="cls-1" d="M74.22,22l-.65.31-.21-.54.76-.13Z" transform="translate(-2.85 -2.05)"/><path class="cls-1" d="M28.37,49.34c.29-.17.46-.36.6-.33s.29.23.44.36c-.16.14-.3.35-.48.38S28.64,49.54,28.37,49.34Z" transform="translate(-2.85 -2.05)"/><path class="cls-1" d="M32.29,35.36l-.73-.19.14-.47.71.3Z" transform="translate(-2.85 -2.05)"/><path class="cls-1" d="M35,50.24c.24-.33.5-.55.85-.21a.42.42,0,0,1,0,.41A.49.49,0,0,1,35,50.24Z" transform="translate(-2.85 -2.05)"/><path class="cls-1" d="M37.1,46.47c-.3.17-.47.34-.59.31a1.89,1.89,0,0,1-.54-.33c.13-.12.26-.33.38-.33S36.74,46.3,37.1,46.47Z" transform="translate(-2.85 -2.05)"/><path class="cls-1" d="M20,28.08c.23-.17.38-.37.48-.35a.6.6,0,0,1,.39.35c0,.1-.2.39-.29.37S20.23,28.27,20,28.08Z" transform="translate(-2.85 -2.05)"/><path class="cls-1" d="M47.08,50.9c.09.13.28.31.24.38a1.87,1.87,0,0,1-.42.44c-.12-.14-.32-.28-.35-.44a1.52,1.52,0,0,1,.16-.59Z" transform="translate(-2.85 -2.05)"/><path class="cls-1" d="M32.89,48.89l-.3.65-.22,0-.25-.67.64-.23Z" transform="translate(-2.85 -2.05)"/><path class="cls-1" d="M65.28,35.3c-.32.15-.49.29-.61.26s-.28-.23-.41-.36c.13-.09.27-.27.4-.26S65,35.1,65.28,35.3Z" transform="translate(-2.85 -2.05)"/><path class="cls-1" d="M17.94,34c.15.28.3.45.3.61s-.22.21-.34.31c-.12-.14-.31-.28-.34-.44S17.75,34.26,17.94,34Z" transform="translate(-2.85 -2.05)"/><path class="cls-1" d="M47.35,36.25c.14.19.31.36.28.42a1.16,1.16,0,0,1-.41.46s-.25-.2-.38-.3Z" transform="translate(-2.85 -2.05)"/><path class="cls-1" d="M76,25.44c.14.22.31.39.28.48s-.25.38-.38.37-.27-.23-.41-.37Z" transform="translate(-2.85 -2.05)"/><path class="cls-1" d="M29,36.72a3.42,3.42,0,0,1,.39.64s-.28.27-.37.24a.64.64,0,0,1-.36-.38C28.63,37.12,28.82,37,29,36.72Z" transform="translate(-2.85 -2.05)"/><path class="cls-1" d="M19.68,38.52c-.29.19-.45.38-.59.36s-.29-.21-.44-.33c.13-.12.26-.33.41-.35S19.38,38.36,19.68,38.52Z" transform="translate(-2.85 -2.05)"/><path class="cls-1" d="M56.13,25.29l.42.52c-.15.12-.3.32-.46.33a.51.51,0,0,1-.37-.36C55.73,25.65,55.94,25.51,56.13,25.29Z" transform="translate(-2.85 -2.05)"/><path class="cls-1" d="M42,38.19c.32-.17.49-.32.65-.32s.25.19.37.3c-.13.14-.25.36-.39.38S42.3,38.38,42,38.19Z" transform="translate(-2.85 -2.05)"/><path class="cls-1" d="M75.13,44a2.51,2.51,0,0,1,.39.66c0,.08-.24.21-.38.32-.13-.15-.3-.29-.35-.47S74.95,44.27,75.13,44Z" transform="translate(-2.85 -2.05)"/><path class="cls-1" d="M44.49,36.86c-.29.16-.46.32-.63.31s-.24-.21-.37-.33c.13-.14.26-.37.41-.39S44.21,36.65,44.49,36.86Z" transform="translate(-2.85 -2.05)"/><path class="cls-1" d="M33.87,36.65a5.2,5.2,0,0,1,.47.67s-.33.3-.36.27a1.23,1.23,0,0,1-.38-.49C33.56,37,33.72,36.88,33.87,36.65Z" transform="translate(-2.85 -2.05)"/><path class="cls-1" d="M23.33,43.4l-.74-.13.15-.53.69.34Z" transform="translate(-2.85 -2.05)"/><path class="cls-1" d="M74.09,24.14a2.36,2.36,0,0,1,.67-.33c.09,0,.21.22.32.34a2.5,2.5,0,0,1-.55.32C74.45,24.49,74.31,24.31,74.09,24.14Z" transform="translate(-2.85 -2.05)"/><path class="cls-1" d="M38.27,40.64c.24-.17.37-.32.46-.31a1.9,1.9,0,0,1,.51.25c-.11.12-.22.34-.34.34S38.57,40.79,38.27,40.64Z" transform="translate(-2.85 -2.05)"/><path class="cls-1" d="M34.42,28.48c.34-.21.49-.37.65-.38s.28.18.41.29c-.14.12-.27.3-.44.34S34.76,28.62,34.42,28.48Z" transform="translate(-2.85 -2.05)"/><path class="cls-1" d="M32.11,38.24c-.27.18-.43.36-.54.34s-.3-.22-.44-.33c.12-.12.23-.33.35-.33S31.81,38.07,32.11,38.24Z" transform="translate(-2.85 -2.05)"/><path class="cls-1" d="M27.76,33.75c.22-.2.37-.42.46-.4a.67.67,0,0,1,.41.36c0,.08-.18.37-.26.36S28,33.9,27.76,33.75Z" transform="translate(-2.85 -2.05)"/><path class="cls-1" d="M24.07,26.63l-.59-.41.25-.34.56.47Z" transform="translate(-2.85 -2.05)"/><path class="cls-1" d="M25.55,40a3.43,3.43,0,0,1,.47.62s-.25.31-.34.29a.67.67,0,0,1-.4-.36C25.24,40.42,25.41,40.24,25.55,40Z" transform="translate(-2.85 -2.05)"/><path class="cls-1" d="M25.32,45.81c-.32.15-.49.3-.65.29s-.24-.22-.36-.34c.15-.11.3-.28.46-.3S25,45.62,25.32,45.81Z" transform="translate(-2.85 -2.05)"/><path class="cls-1" d="M44.93,49.44l.47.59c-.14.1-.3.31-.4.28a.72.72,0,0,1-.39-.39C44.57,49.84,44.76,49.68,44.93,49.44Z" transform="translate(-2.85 -2.05)"/><path class="cls-1" d="M44.37,35.72c-.21-.22-.38-.34-.44-.5s.22-.32.33-.32.33.17.49.27Z" transform="translate(-2.85 -2.05)"/><path class="cls-1" d="M20.51,45.45c-.09-.14-.28-.32-.25-.41a.58.58,0,0,1,.4-.35c.13,0,.35.22.36.36s-.14.38-.21.57Z" transform="translate(-2.85 -2.05)"/><path class="cls-1" d="M42.51,49.9c-.28.18-.44.37-.55.35a.88.88,0,0,1-.43-.35s.18-.31.25-.3A3.61,3.61,0,0,1,42.51,49.9Z" transform="translate(-2.85 -2.05)"/><path class="cls-1" d="M40.2,48.64l.43.6c-.15.09-.31.26-.43.23a.63.63,0,0,1-.37-.38C39.8,49,40,48.85,40.2,48.64Z" transform="translate(-2.85 -2.05)"/><path class="cls-1" d="M79.08,26.74l-.66.42-.22-.38.69-.38Z" transform="translate(-2.85 -2.05)"/><path class="cls-1" d="M46.32,29.31l.73-.07c0,.16,0,.32,0,.48l-.74-.07C46.32,29.53,46.32,29.42,46.32,29.31Z" transform="translate(-2.85 -2.05)"/><path class="cls-1" d="M45.75,47.75c.27-.14.41-.29.54-.27s.26.19.38.29c-.14.13-.26.31-.42.36S46,48,45.75,47.75Z" transform="translate(-2.85 -2.05)"/><path class="cls-1" d="M41.32,37.85c-.26.16-.42.33-.53.31s-.3-.22-.45-.35c.16-.11.3-.28.48-.31S41.07,37.67,41.32,37.85Z" transform="translate(-2.85 -2.05)"/><path class="cls-1" d="M38.83,27.3c.28-.14.45-.29.54-.25s.25.25.38.38c-.13.1-.27.3-.38.29S39.09,27.52,38.83,27.3Z" transform="translate(-2.85 -2.05)"/><path class="cls-1" d="M40.1,37.23a2.33,2.33,0,0,1-.66.26c-.1,0-.2-.19-.3-.29.14-.12.27-.3.43-.34S39.83,37,40.1,37.23Z" transform="translate(-2.85 -2.05)"/><path class="cls-1" d="M17.69,40.07c.28-.17.43-.34.55-.31s.28.21.42.33c-.12.12-.24.33-.36.33S18,40.25,17.69,40.07Z" transform="translate(-2.85 -2.05)"/><path class="cls-1" d="M26.26,28.54a2.22,2.22,0,0,1,.36.57c0,.07-.24.3-.31.27a.79.79,0,0,1-.42-.36C25.85,29,26.07,28.77,26.26,28.54Z" transform="translate(-2.85 -2.05)"/><path class="cls-1" d="M19,43.12l.47.58-.53.2-.21-.64Z" transform="translate(-2.85 -2.05)"/><path class="cls-1" d="M19.06,41.57l.4.53c-.15.11-.29.29-.45.31s-.37-.22-.35-.29S18.87,41.81,19.06,41.57Z" transform="translate(-2.85 -2.05)"/><path class="cls-1" d="M72.39,22.88c.09.11.27.28.24.32a1,1,0,0,1-.41.39c-.06,0-.32-.21-.33-.33a1.62,1.62,0,0,1,.18-.58Z" transform="translate(-2.85 -2.05)"/><path class="cls-1" d="M70.95,48.42c-.26.19-.4.37-.52.36s-.29-.19-.43-.29c.12-.11.23-.29.37-.31S70.65,48.28,70.95,48.42Z" transform="translate(-2.85 -2.05)"/><path class="cls-1" d="M67.81,33c.19-.05.41-.18.57-.13s.18.3.26.46l-.12.14-.7-.21C67.82,33.19,67.81,33.1,67.81,33Z" transform="translate(-2.85 -2.05)"/><path class="cls-1" d="M54.86,36.32c.19.26.36.4.39.56s-.18.24-.29.36c-.14-.13-.33-.24-.4-.4S54.7,36.58,54.86,36.32Z" transform="translate(-2.85 -2.05)"/><path class="cls-1" d="M62,61a5.09,5.09,0,0,1,1-.21c.09,0,.31.33.27.44-.25.7-.5,1.42-1.49,1.57l.67.39-.48.58-.33-.38H60.48a4.81,4.81,0,0,1,.63-.76c.47-.38,1-.71,1.55-1.09L62,61Z" transform="translate(-2.85 -2.05)"/><path class="cls-1" d="M70.21,61.28c-.41.86-.94.28-1.44.34L69,62c-.57.6-.65-.07-.84-.28h-1c0-.1,0-.2,0-.3A7.11,7.11,0,0,1,70.21,61.28Z" transform="translate(-2.85 -2.05)"/><path class="cls-1" d="M53.64,92.66a4.39,4.39,0,0,1,.73-.78.93.93,0,0,1,.65,0,2.91,2.91,0,0,1,.78.33,1.57,1.57,0,0,1,.33.42c-.18.08-.4.28-.53.23a1.44,1.44,0,0,0-1.35,0C54.13,92.9,53.88,92.73,53.64,92.66Z" transform="translate(-2.85 -2.05)"/><path class="cls-1" d="M71,59.53c-.27.51-.46.92-.7,1.3,0,.06-.33,0-.48-.07s-.08-.25,0-.35a6.43,6.43,0,0,1,.37-.85,4.3,4.3,0,0,1,.34-.49Z" transform="translate(-2.85 -2.05)"/><path class="cls-1" d="M65.6,70c0,.19,0,.47-.08.53a.64.64,0,0,1-.55-.05,5.35,5.35,0,0,1-.94-.67c-.1-.09-.08-.31-.11-.47a1.57,1.57,0,0,1,.56,0c.39.19.76.42,1.14.64Z" transform="translate(-2.85 -2.05)"/><path class="cls-1" d="M65.62,70c-.22-.39-.45-.78-.62-1.18,0-.08.23-.38.26-.37.22.1.59.25.6.39a1.36,1.36,0,0,0,.21.67c.17.33-.06.56-.47.47Z" transform="translate(-2.85 -2.05)"/><path class="cls-1" d="M73.49,59.65c-.14,0-.33.06-.4,0a2.73,2.73,0,0,1-.37-.52c.14-.09.32-.29.42-.26a11.23,11.23,0,0,1,1.13.54,4.19,4.19,0,0,1-.5.25c-.08,0-.18,0-.27-.05S73.49,59.64,73.49,59.65Z" transform="translate(-2.85 -2.05)"/><path class="cls-1" d="M43.67,92.85a8.18,8.18,0,0,1,.93-.69s.39.34.37.38a2.22,2.22,0,0,1-.58.66C44.32,93.25,44.07,93.06,43.67,92.85Z" transform="translate(-2.85 -2.05)"/><path class="cls-1" d="M62.61,66.74l.82.68c-.16.09-.35.3-.46.26a5.23,5.23,0,0,1-.85-.52Z" transform="translate(-2.85 -2.05)"/><path class="cls-1" d="M85.2,50.24c.16.27.35.49.32.55a6.81,6.81,0,0,1-.68.73c-.12-.14-.38-.36-.35-.41A8,8,0,0,1,85.2,50.24Z" transform="translate(-2.85 -2.05)"/><path class="cls-1" d="M63.88,90.19l-.57.56c-.11-.16-.33-.34-.31-.48a2.37,2.37,0,0,1,.36-.68Z" transform="translate(-2.85 -2.05)"/><path class="cls-1" d="M57.79,92.26a3.11,3.11,0,0,1,.47.76c0,.12-.21.29-.33.44a3.91,3.91,0,0,1-.56-.62C57.34,92.77,57.57,92.55,57.79,92.26Z" transform="translate(-2.85 -2.05)"/><path class="cls-1" d="M86.19,50.19l.76.8c-.12.11-.31.34-.35.32a3.44,3.44,0,0,1-.72-.58S86,50.46,86.19,50.19Z" transform="translate(-2.85 -2.05)"/><path class="cls-1" d="M64.74,73.64l.65-.08c-.08,1.18-.15,1.26-.63,1,0-.36,0-.64,0-.92Z" transform="translate(-2.85 -2.05)"/><path class="cls-1" d="M64.76,73.62a2.52,2.52,0,0,1-.83-.08c-.09,0,0-.43,0-.66a1.59,1.59,0,0,1,.57.21,1.65,1.65,0,0,1,.27.55Z" transform="translate(-2.85 -2.05)"/><path class="cls-1" d="M61.51,65.81,61,66.3c-.13-.16-.38-.33-.37-.47s.25-.34.43-.42S61.29,65.62,61.51,65.81Z" transform="translate(-2.85 -2.05)"/><path class="cls-1" d="M48.8,92.85l-.84.32-.14-.56.86-.18Z" transform="translate(-2.85 -2.05)"/><path class="cls-1" d="M67,59.29c-.34.18-.61.34-.89.46a.41.41,0,0,1-.35-.06.35.35,0,0,1-.05-.31C65.82,59.09,66.71,59,67,59.29Z" transform="translate(-2.85 -2.05)"/><path class="cls-1" d="M45.4,90.32l-.84-.2c.12-.16.25-.44.37-.44s.4.18.6.29Z" transform="translate(-2.85 -2.05)"/><path class="cls-1" d="M72.92,60.16l-1-.19c0-.13.07-.34.16-.37C72.37,59.45,72.72,59.4,72.92,60.16Z" transform="translate(-2.85 -2.05)"/><path class="cls-1" d="M65.51,60.26c.2.27.41.43.39.55a.58.58,0,0,1-.39.36c-.09,0-.34-.21-.34-.33S65.34,60.54,65.51,60.26Z" transform="translate(-2.85 -2.05)"/><path class="cls-1" d="M87.93,47.71c-.28.19-.45.39-.6.38s-.23-.27-.35-.42c.14-.09.27-.25.41-.26S87.66,47.56,87.93,47.71Z" transform="translate(-2.85 -2.05)"/><path class="cls-1" d="M60.1,90.64a3.75,3.75,0,0,1-.64-.24,2.27,2.27,0,0,1,.15-.45l.65.34Z" transform="translate(-2.85 -2.05)"/><path class="cls-1" d="M80.62,78c-.3.2-.47.39-.61.37s-.27-.23-.41-.35c.12-.11.24-.3.36-.31S80.29,77.83,80.62,78Z" transform="translate(-2.85 -2.05)"/><path class="cls-1" d="M68,73.38h-.8c0-.14,0-.28,0-.42L68,73Z" transform="translate(-2.85 -2.05)"/><path class="cls-1" d="M61.3,91.85l-.76,0a2.74,2.74,0,0,1,.06-.44,5.69,5.69,0,0,1,.74.07C61.33,91.58,61.32,91.71,61.3,91.85Z" transform="translate(-2.85 -2.05)"/><path class="cls-1" d="M79.14,83.07c.34-.19.52-.37.67-.35s.28.24.41.38c-.13.09-.26.26-.4.26S79.49,83.22,79.14,83.07Z" transform="translate(-2.85 -2.05)"/><path class="cls-1" d="M57.65,87.64c.24-.18.38-.38.49-.36s.3.21.44.32c-.12.14-.22.38-.35.38S57.92,87.81,57.65,87.64Z" transform="translate(-2.85 -2.05)"/><path class="cls-1" d="M44.21,91.6c.28-.15.42-.3.55-.28s.27.17.4.27c-.11.13-.22.37-.33.36S44.51,91.78,44.21,91.6Z" transform="translate(-2.85 -2.05)"/><path class="cls-1" d="M73.14,87.37c-.2.18-.35.39-.4.36a2.57,2.57,0,0,1-.5-.37c.1-.1.22-.3.3-.29A2.12,2.12,0,0,1,73.14,87.37Z" transform="translate(-2.85 -2.05)"/><path class="cls-1" d="M71.43,82.47c.12.28.28.47.23.55a.73.73,0,0,1-.43.33c-.08,0-.32-.25-.3-.28A4.84,4.84,0,0,1,71.43,82.47Z" transform="translate(-2.85 -2.05)"/><path class="cls-1" d="M69.35,89.74c.21-.16.35-.33.43-.31a1.76,1.76,0,0,1,.47.32c-.13.11-.25.3-.39.31S69.58,89.9,69.35,89.74Z" transform="translate(-2.85 -2.05)"/><path class="cls-1" d="M68.26,89c.3-.13.47-.28.58-.24s.26.24.39.38c-.13.1-.28.28-.39.27S68.54,89.2,68.26,89Z" transform="translate(-2.85 -2.05)"/><path class="cls-1" d="M64.09,71.06a5.54,5.54,0,0,1,.72.07,2.56,2.56,0,0,1,0,.43L64,71.4C64.06,71.29,64.08,71.17,64.09,71.06Z" transform="translate(-2.85 -2.05)"/><path class="cls-1" d="M59,87.19l.91,0C59.52,87.88,59.46,87.89,59,87.19Z" transform="translate(-2.85 -2.05)"/><path class="cls-1" d="M58,88.53c-.36.14-.53.26-.69.24s-.24-.19-.36-.3c.14-.12.27-.32.43-.33S57.67,88.31,58,88.53Z" transform="translate(-2.85 -2.05)"/><path class="cls-1" d="M64.89,10.44c1.15-.76,2.27-1.56,3.45-2.25a16.9,16.9,0,0,1,2.94-1.43c2.07-.72,3.12,0,3.34,2.15.24,2.41.43,4.83.62,7.25.09,1.14-.27,1.61-1.35,1.39a18.34,18.34,0,0,1-4.52-1.39,34,34,0,0,1-4.61-3,3.06,3.06,0,0,1-.8-1.29c-.07-.16.1-.48.23-.67a7.41,7.41,0,0,1,.71-.76ZM71.29,14a11.86,11.86,0,0,1,1.4-.25c.21,0,.43.16.64.25l-.44.43-.29.3.8,0c-.2-.67.38-.47.68-.6l.05-.46c-.21-.28-.51-.62-.48-.66.48-.53-.07-1-.1-1.44l.88-.48c-.65-.17-.9-.43-.62-.94,0-.07-.12-.35-.24-.39a12.5,12.5,0,0,0-1.25-.3l-.56-.12c0-.52.18-1,0-1.26s-.57-.44-.85-.64c-.23.22-.38.48-.52.47-.39,0-.67.07-.82.48,0,.07-.2.08-.3.11a4.53,4.53,0,0,0-.95.32c-.64.39-1.25.82-1.86,1.26a5.7,5.7,0,0,0-.62.6,6,6,0,0,0,.79.68,2.32,2.32,0,0,0,.73.17c.79.16.94.36.75,1.11a.73.73,0,0,1,.18-.08l.86-.09c-.08.21-.16.42-.25.63s-.19.4-.26.54l1.81-.38-.25-.73c.33.07.66.05.72.17a1.92,1.92,0,0,1,.19,1c0,.08-.46.13-.68.19l.76.65C71.25,14.37,71.27,14.18,71.29,14ZM73.9,8.78l-.06-.23-1.43-.31-.17.7Z" transform="translate(-2.85 -2.05)"/><path class="cls-1" d="M22.57,14.69c.18-1.55.29-3.11.55-4.65A17.26,17.26,0,0,1,24,7.17a1.17,1.17,0,0,1,1.51-.68,11.18,11.18,0,0,1,5,2.31,36.59,36.59,0,0,1,2.95,2.54,2.57,2.57,0,0,1,.74,1.73c0,.44-.66.93-1.13,1.24a21.16,21.16,0,0,1-7.49,3c-.3.06-.59.16-.88.24-1.13.3-1.45.13-1.81-1A2.47,2.47,0,0,1,22.7,16c0-.42,0-.84,0-1.26Zm.92.35,1.72,1.25.19-.25L25,15.72a3.1,3.1,0,0,1-.58-.48c-.07-.08,0-.29.06-.44a3.1,3.1,0,0,1,.76.17c.34.17.61.31.63-.26l-.72-.2c0-.06,0-.12,0-.19.2,0,.45-.18.58-.11a11.42,11.42,0,0,1,1.16.87,2.52,2.52,0,0,0-.18-.71.73.73,0,0,1,.43-1.09,3.2,3.2,0,0,0,.64-.28l-.08-.26-1.06.19-.14-.48c1.41-.34,1.41-.34,1.79,1a2.53,2.53,0,0,0-.64.14.81.81,0,0,0-.38.41c0,.09.14.34.25.37s.51,0,.55-.1c.3-.76.82-.49,1.36-.32l.17-.54a2.38,2.38,0,0,1-.68.1c-.15,0-.42-.21-.4-.29a3.55,3.55,0,0,1,.34-.89,1.29,1.29,0,0,1,.46.16c.26.16.49.35.76.55,0,.77.07.91.53.78a1.92,1.92,0,0,1,.07-.68.93.93,0,0,1,.45-.32c.31.35.5,0,.69-.13.35-.21.66-.49,1,0,.05.06.32-.06.71-.15l-1.25-1.05a3.3,3.3,0,0,1-.22.6c-.08.13-.23.29-.35.3s-.33-.23-.31-.3c.13-.41.32-.8.51-1.26-.76-.38-1.23-1.43-2.34-1.53-.08,0-.17-.14-.22-.24a2.59,2.59,0,0,0-2-1.19,1,1,0,0,1-.57,1.35,2.17,2.17,0,0,1-1.23,0c-.09,0-.11-.48-.16-.77-.65,0-.37.59-.5.92a5.74,5.74,0,0,1-.35.91c-.05.09-.33.07-.49,0s-.07-.27,0-.4a5,5,0,0,1,.25-.65l-.18-.09a2.47,2.47,0,0,0-.31.63c-.16.94-.3,1.89-.41,2.84-.06.48-.26,1,.37,1.3Z" transform="translate(-2.85 -2.05)"/><path class="cls-1" d="M36.76,20.17c.28.08.47.08.57.17s.08.28.12.42a6.32,6.32,0,0,1-1.09-.09c-.09,0-.2-.42-.13-.55.52-.91,1.07-1.81,1.64-2.69.07-.11.29-.13.44-.19,0,.18.06.4,0,.54C37.81,18.56,37.31,19.32,36.76,20.17Z" transform="translate(-2.85 -2.05)"/><path class="cls-1" d="M35,16.7c0,.22,0,.44-.07.66a25.4,25.4,0,0,0-.35,2.56c0,.55-.33.67-.72.77a.38.38,0,0,1-.32-.17.52.52,0,0,1,.06-.37,6,6,0,0,0,.52-1c.14-.57.14-1.16.25-1.74a3.76,3.76,0,0,1,.33-.78Z" transform="translate(-2.85 -2.05)"/><path class="cls-1" d="M64,19.51c.08-.2.13-.36.2-.51.43-.91.85-1.82,1.31-2.71.08-.15.35-.19.53-.29a1.69,1.69,0,0,1,0,.6q-.67,1.46-1.39,2.89c-.07.13-.26.2-.4.3Z" transform="translate(-2.85 -2.05)"/><path class="cls-1" d="M34.57,11.68a2.73,2.73,0,0,1,.53-.25,1,1,0,0,1,.51,0c.06,0,.12.26.09.28a1.23,1.23,0,0,1-.43.24,2.86,2.86,0,0,1-.71.16.63.63,0,0,1-.41-.17.31.31,0,0,1,0-.31c.08-.08.23-.1.36-.14Z" transform="translate(-2.85 -2.05)"/><path class="cls-1" d="M21.13,17.6c.35-.17.55-.34.73-.33s.25.26.37.4c-.16.1-.32.29-.48.29S21.44,17.79,21.13,17.6Z" transform="translate(-2.85 -2.05)"/><path class="cls-1" d="M67.62,7.06c.28-.18.44-.36.6-.35s.3.2.45.32c-.13.13-.26.35-.41.37S67.92,7.23,67.62,7.06Z" transform="translate(-2.85 -2.05)"/><path class="cls-1" d="M58.36,19c.27-.17.44-.35.54-.32s.29.24.43.37c-.13.11-.25.32-.37.31S58.65,19.15,58.36,19Z" transform="translate(-2.85 -2.05)"/><path class="cls-1" d="M31.91,8c-.27.12-.44.27-.55.24s-.29-.23-.42-.36c.15-.12.3-.33.44-.33S31.66,7.78,31.91,8Z" transform="translate(-2.85 -2.05)"/><path class="cls-1" d="M38.26,14.32l-.48-.64c.14-.09.3-.27.4-.24a.64.64,0,0,1,.38.38C38.59,13.91,38.41,14.08,38.26,14.32Z" transform="translate(-2.85 -2.05)"/><path class="cls-1" d="M66.1,6.94c.19.22.37.35.38.49s-.23.32-.34.31-.31-.19-.47-.29Z" transform="translate(-2.85 -2.05)"/><path class="cls-1" d="M70.43,6.06l-.24.67-.52-.26.42-.59Z" transform="translate(-2.85 -2.05)"/><path class="cls-1" d="M33.75,8.32c.19.28.35.44.37.61s-.21.22-.33.33c-.13-.14-.31-.27-.36-.43S33.59,8.57,33.75,8.32Z" transform="translate(-2.85 -2.05)"/><path class="cls-1" d="M28.88,6c.18.21.35.34.39.5s-.24.35-.28.33a2.61,2.61,0,0,1-.51-.37Z" transform="translate(-2.85 -2.05)"/><path class="cls-1" d="M26.69,5.13c.2.24.42.38.42.53s-.22.27-.35.41c-.13-.14-.32-.27-.37-.44S26.54,5.37,26.69,5.13Z" transform="translate(-2.85 -2.05)"/><path class="cls-1" d="M63.71,8.92c-.17.07-.35.2-.5.18s-.31-.21-.46-.32c.13-.13.24-.32.4-.37s.27.15.4.23Z" transform="translate(-2.85 -2.05)"/><path class="cls-1" d="M60.53,16.2a2.25,2.25,0,0,1,.39.52c0,.05-.23.29-.3.27a1.88,1.88,0,0,1-.47-.34Z" transform="translate(-2.85 -2.05)"/><path class="cls-1" d="M57.48,20.25l-.72,0c0-.16,0-.32,0-.49l.72.09C57.49,20,57.49,20.14,57.48,20.25Z" transform="translate(-2.85 -2.05)"/><path class="cls-1" d="M56.23,21.71h.69c0,.16,0,.32,0,.48l-.72-.12C56.21,22,56.22,21.84,56.23,21.71Z" transform="translate(-2.85 -2.05)"/><path class="cls-1" d="M76.65,17.46l.67-.16.11.5h-.74C76.67,17.69,76.66,17.58,76.65,17.46Z" transform="translate(-2.85 -2.05)"/><path class="cls-1" d="M77.9,20.39l-.8.11c0-.14,0-.29,0-.43h.77Z" transform="translate(-2.85 -2.05)"/><path class="cls-1" d="M20.42,21.48c.25-.17.38-.33.48-.31a1.83,1.83,0,0,1,.49.28c-.11.12-.22.33-.33.33S20.73,21.64,20.42,21.48Z" transform="translate(-2.85 -2.05)"/><path class="cls-1" d="M64.91,10.42l-.6-.34c.09-.12.22-.34.27-.32a.89.89,0,0,1,.44.31c0,.07-.08.25-.12.37Z" transform="translate(-2.85 -2.05)"/><path class="cls-1" d="M57.61,20.07c.29-.16.45-.32.57-.3s.23.22.34.34c-.11.09-.22.26-.32.26S57.91,20.23,57.61,20.07Z" transform="translate(-2.85 -2.05)"/><path class="cls-1" d="M11.9,54.42l1.69-.24a1.34,1.34,0,0,1,0,.5c0,.09-.27.06-.37.15-.81.66-.93.63-1.28-.42Z" transform="translate(-2.85 -2.05)"/><path class="cls-1" d="M19.4,57.63c-.41-.27-1,.47-1.28-.33a2.45,2.45,0,0,1,1-.45c.13,0,.34.36.51.55Z" transform="translate(-2.85 -2.05)"/><path class="cls-1" d="M13.13,55.55a9.92,9.92,0,0,1,.58,1.24c0,.07-.3.24-.47.37a10.65,10.65,0,0,1-.49-1.05C12.72,56,12.9,55.87,13.13,55.55Z" transform="translate(-2.85 -2.05)"/><path class="cls-1" d="M18.13,74.77c-.2.06-.48.23-.59.15a1.34,1.34,0,0,1-.45-.66c0-.09.21-.27.33-.41l.5.55Z" transform="translate(-2.85 -2.05)"/><path class="cls-1" d="M19.63,59.71c-.19.08-.41.26-.56.21a2.5,2.5,0,0,1-.64-.49c.16-.09.33-.28.47-.25a3.13,3.13,0,0,1,.74.32C19.64,59.57,19.64,59.64,19.63,59.71Z" transform="translate(-2.85 -2.05)"/><path class="cls-1" d="M16,56.74l-.8-.07.06-.55.82.2Z" transform="translate(-2.85 -2.05)"/><path class="cls-1" d="M12.53,69.62c.3-.14.47-.29.64-.29s.25.19.38.3c-.16.13-.31.32-.5.36S12.79,69.82,12.53,69.62Z" transform="translate(-2.85 -2.05)"/><path class="cls-1" d="M11.72,53.83l.18.59,0,0c-.16.07-.32.21-.47.2s-.27-.19-.4-.29a1.94,1.94,0,0,1,.3-.33,1.54,1.54,0,0,1,.39-.13Z" transform="translate(-2.85 -2.05)"/><path class="cls-1" d="M16.6,58.26c.31-.15.49-.31.63-.28s.26.24.38.38c-.15.1-.3.29-.44.29S16.88,58.46,16.6,58.26Z" transform="translate(-2.85 -2.05)"/><path class="cls-1" d="M14.72,56.57c.19.28.36.43.37.58s-.21.23-.33.34c-.13-.14-.3-.26-.36-.42S14.55,56.83,14.72,56.57Z" transform="translate(-2.85 -2.05)"/><path class="cls-1" d="M16.77,60.63c.16.21.37.37.34.47s-.23.37-.37.38a.51.51,0,0,1-.38-.35C16.35,61,16.57,60.85,16.77,60.63Z" transform="translate(-2.85 -2.05)"/><path class="cls-1" d="M14.16,58.92c.18.21.35.33.4.49s-.23.31-.33.29-.31-.2-.46-.31Z" transform="translate(-2.85 -2.05)"/><path class="cls-1" d="M35.8,82.7c.12.28.3.5.25.62a.63.63,0,0,1-.47.34c-.14,0-.28-.26-.42-.4Z" transform="translate(-2.85 -2.05)"/><path class="cls-1" d="M43.67,78c.18.21.41.36.39.48s-.25.4-.36.39-.32-.23-.48-.36Z" transform="translate(-2.85 -2.05)"/><path class="cls-1" d="M45.93,77.18a2.6,2.6,0,0,1-.65.29c-.06,0-.17-.31-.26-.47l.8-.13Z" transform="translate(-2.85 -2.05)"/><path class="cls-1" d="M37.42,73.12l.91.08c-.06.16-.14.45-.18.45a5.42,5.42,0,0,1-.8-.2Z" transform="translate(-2.85 -2.05)"/><path class="cls-1" d="M37.56,86.08c.16.3.32.46.31.61s-.26.35-.34.33-.37-.23-.38-.37S37.35,86.36,37.56,86.08Z" transform="translate(-2.85 -2.05)"/><path class="cls-1" d="M34.67,80.83l.39.51c-.16.11-.33.32-.47.3s-.29-.25-.36-.42S34.47,81,34.67,80.83Z" transform="translate(-2.85 -2.05)"/><path class="cls-1" d="M39,73.77c.19.23.37.36.4.53s-.26.33-.34.31a.73.73,0,0,1-.41-.38C38.6,74.15,38.81,74,39,73.77Z" transform="translate(-2.85 -2.05)"/><path class="cls-1" d="M44,74.7c-.25.16-.42.36-.53.32s-.28-.25-.42-.38c.15-.1.3-.26.46-.27S43.73,74.54,44,74.7Z" transform="translate(-2.85 -2.05)"/><path class="cls-1" d="M51,72.61h1l.18.18c.35-.74.7-1.48,1.06-2.21.05-.11.17-.18.26-.27.07.12.24.27.21.37-.31,1-.65,2.07-1,3.1a1.1,1.1,0,0,1-.19.26,3.9,3.9,0,0,1,1.15.55,1,1,0,0,1,.07.9.59.59,0,0,1-1,.09,10.94,10.94,0,0,1-.83-1,6.66,6.66,0,0,1-1,.82c-.07,0-.5-.33-.55-.56-.13-.54.17-.83.73-1S51.64,73.36,51,72.61Z" transform="translate(-2.85 -2.05)"/><path class="cls-1" d="M58.79,75.27a3.88,3.88,0,0,1-.59.23c-.72.15-1.49.19-1.63,1.17,0,.07-.33.12-.51.15-.54.1-1.24-.16-1.33.78,0,.19-.48.4-.76.48-.11,0-.46-.3-.44-.43a1.21,1.21,0,0,1,.41-.72A18.2,18.2,0,0,1,56,75.44,2.38,2.38,0,0,1,58.79,75.27Z" transform="translate(-2.85 -2.05)"/><path class="cls-1" d="M56.68,78.86c.63.34,1.27.66,1.88,1a2.61,2.61,0,0,1,.5.55,2,2,0,0,1-.69,0,19.06,19.06,0,0,1-2.25-.95,11.45,11.45,0,0,1-1.45-1.11c.54-.21.9-.61,1.44-.29.06,0,.15,0,.23,0l.59,0-.14.65Z" transform="translate(-2.85 -2.05)"/><path class="cls-1" d="M54.28,83.6c-.17.15-.31.35-.39.33a.61.61,0,0,1-.35-.33c-.18-.4-.3-.82-.48-1.22-.05-.12-.22-.19-.34-.29s-.53-.36-.51-.41a3.56,3.56,0,0,1,.64-1,.94.94,0,0,1,.62.36C53.78,81.89,54,82.72,54.28,83.6Z" transform="translate(-2.85 -2.05)"/><path class="cls-1" d="M53.81,79.9c.13.47-.05.67-.52.54-1-.27-1.06-.61-.37-1.32.14-.15.24-.37.4-.46a1.93,1.93,0,0,1,.62-.11,4.2,4.2,0,0,1,0,.54C53.92,79.36,53.86,79.63,53.81,79.9Z" transform="translate(-2.85 -2.05)"/><path class="cls-1" d="M59.35,73.8c.07.2.22.41.19.58a.58.58,0,0,1-.41.37.54.54,0,0,1-.42-.34c0-.12.2-.29.31-.43Z" transform="translate(-2.85 -2.05)"/><path class="cls-1" d="M58,76.5c-.3.12-.46.25-.59.22s-.26-.2-.39-.31c.13-.12.26-.33.38-.33S57.71,76.28,58,76.5Z" transform="translate(-2.85 -2.05)"/><path class="cls-1" d="M52.07,82.09c.15.28.31.45.28.57s-.24.26-.37.39c-.11-.13-.32-.27-.31-.38S51.87,82.35,52.07,82.09Z" transform="translate(-2.85 -2.05)"/><path class="cls-1" d="M85.84,33.59c.32-.16.49-.3.65-.3a.44.44,0,0,1,.29.33c0,.13-.21.35-.32.34S86.15,33.78,85.84,33.59Z" transform="translate(-2.85 -2.05)"/><path class="cls-1" d="M86.15,69.77a.59.59,0,0,1,0,.2c-.08.28-.18.55-.27.83a3.47,3.47,0,0,1-.8-.73,2.31,2.31,0,0,1-.15-1c0-.08.14-.26.18-.25a.75.75,0,0,1,.39.21,9.29,9.29,0,0,1,.52.77Z" transform="translate(-2.85 -2.05)"/><path class="cls-1" d="M83.74,71.68l1,.47a5,5,0,0,1-.94.42c-.08,0-.28-.32-.35-.51S83.59,71.85,83.74,71.68Z" transform="translate(-2.85 -2.05)"/><path class="cls-1" d="M85.14,65.9l.62-.85a5.85,5.85,0,0,1,.22,1c0,.12-.23.26-.36.4Z" transform="translate(-2.85 -2.05)"/><path class="cls-1" d="M86.41,67.72l-.28-1.1c.2,0,.5,0,.59.13C86.93,67,87.17,67.4,86.41,67.72Z" transform="translate(-2.85 -2.05)"/><path class="cls-1" d="M85.71,64.39c.22-.16.45-.37.48-.34a1.87,1.87,0,0,1,.49.58c0,.07-.16.26-.25.4Z" transform="translate(-2.85 -2.05)"/><path class="cls-1" d="M83.41,72.65c.18.25.39.44.35.5a1.07,1.07,0,0,1-.45.44c-.07,0-.37-.24-.36-.27A4.48,4.48,0,0,1,83.41,72.65Z" transform="translate(-2.85 -2.05)"/><path class="cls-1" d="M85.49,76.85c.06.17.18.36.15.52a.54.54,0,0,1-.36.34.45.45,0,0,1-.36-.28c0-.12.15-.27.25-.4Z" transform="translate(-2.85 -2.05)"/><path class="cls-1" d="M32,72.18l.1.67c-.18,0-.4.14-.52.06a3.39,3.39,0,0,1-.67-.63s.08-.21.17-.27a15.13,15.13,0,0,1,1.38-.87c.16-.09.41,0,.61,0-.07.18-.1.42-.23.53A6.22,6.22,0,0,1,32,72.18Z" transform="translate(-2.85 -2.05)"/><path class="cls-1" d="M28.95,76.35c.35-.23.55-.44.64-.4a2,2,0,0,1,.52.45c-.12.1-.25.3-.36.29A3.32,3.32,0,0,1,28.95,76.35Z" transform="translate(-2.85 -2.05)"/><path class="cls-1" d="M28.49,76.2c-.28.22-.44.43-.61.45s-.3-.2-.44-.31c.15-.16.27-.38.45-.46S28.2,76,28.49,76.2Z" transform="translate(-2.85 -2.05)"/><path class="cls-1" d="M35.71,67.25c.16.22.36.39.34.51s-.29.38-.39.35-.3-.27-.45-.42Z" transform="translate(-2.85 -2.05)"/><path class="cls-1" d="M34.45,69.66a1.7,1.7,0,0,1,.23.61c0,.12-.26.31-.4.32a.54.54,0,0,1-.42-.3c0-.11.17-.29.26-.44Z" transform="translate(-2.85 -2.05)"/><path class="cls-1" d="M37.94,64.72l.51.42-.45.42a1.93,1.93,0,0,1-.39-.44C37.59,65.06,37.79,64.89,37.94,64.72Z" transform="translate(-2.85 -2.05)"/><path class="cls-1" d="M31.15,70.32a2.5,2.5,0,0,1,.71-.32c.1,0,.33.28.3.36a.61.61,0,0,1-.4.36C31.61,70.72,31.45,70.52,31.15,70.32Z" transform="translate(-2.85 -2.05)"/><path class="cls-1" d="M36.31,66.18c.19.19.39.31.39.43s-.22.38-.3.37a.75.75,0,0,1-.43-.34C35.94,66.58,36.15,66.39,36.31,66.18Z" transform="translate(-2.85 -2.05)"/><path class="cls-1" d="M32.45,70.23a3.11,3.11,0,0,1,.74-.32c.09,0,.21.19.32.29a1.75,1.75,0,0,1-.49.36C32.92,70.59,32.75,70.41,32.45,70.23Z" transform="translate(-2.85 -2.05)"/><path class="cls-1" d="M55,59.61a3.91,3.91,0,0,1-.67.53.56.56,0,0,1-.47-.15c-.45-.43-.88-.88-1.3-1.34-.08-.09-.16-.32-.12-.36a3.57,3.57,0,0,1,.87-.66c.13-.06.46.11.57.27C54.28,58.42,54.61,59,55,59.61Z" transform="translate(-2.85 -2.05)"/><path class="cls-1" d="M27.64,86.31l-1,.28c.28-.83.43-.84,1-.26Z" transform="translate(-2.85 -2.05)"/><path class="cls-1" d="M23.29,87c-.28.2-.44.38-.54.36a1.73,1.73,0,0,1-.5-.35c.13-.1.26-.28.4-.29S23,86.89,23.29,87Z" transform="translate(-2.85 -2.05)"/><path class="cls-1" d="M29.81,62.88a2.5,2.5,0,0,1,.69-.29c.13,0,.28.21.42.33-.16.16-.31.42-.49.44s-.41-.18-.62-.29C29.81,63,29.81,62.94,29.81,62.88Z" transform="translate(-2.85 -2.05)"/><path class="cls-1" d="M29.81,66.73l.47.57c-.13.09-.27.26-.4.25s-.29-.18-.44-.28Z" transform="translate(-2.85 -2.05)"/><path class="cls-1" d="M30.13,61.8a2.71,2.71,0,0,1,.73-.35c.12,0,.25.19.38.3a2,2,0,0,1-.53.37C30.6,62.14,30.43,62,30.13,61.8Z" transform="translate(-2.85 -2.05)"/><path class="cls-1" d="M10.48,62.39c.33-.21.47-.38.58-.36a1.55,1.55,0,0,1,.48.29c-.12.11-.22.28-.35.3S10.86,62.52,10.48,62.39Z" transform="translate(-2.85 -2.05)"/><path class="cls-1" d="M25.65,90.47h.8c0,.16,0,.33,0,.5l-.81,0C25.64,90.77,25.65,90.62,25.65,90.47Z" transform="translate(-2.85 -2.05)"/><path class="cls-1" d="M28.14,88.21l.47.54c-.13.1-.32.31-.38.28a1.23,1.23,0,0,1-.42-.44S28,88.38,28.14,88.21Z" transform="translate(-2.85 -2.05)"/><path class="cls-1" d="M9,78.2c.09.15.26.31.26.46s-.27.29-.38.27a.57.57,0,0,1-.4-.34c0-.18.12-.38.19-.57Z" transform="translate(-2.85 -2.05)"/><path class="cls-1" d="M9.27,76.22a5.66,5.66,0,0,1,.62.3,2.7,2.7,0,0,1-.16.37l-.62-.37Z" transform="translate(-2.85 -2.05)"/><path class="cls-1" d="M15.85,79.15c.16.29.34.47.31.59a.58.58,0,0,1-.41.32c-.1,0-.36-.23-.34-.28A3.41,3.41,0,0,1,15.85,79.15Z" transform="translate(-2.85 -2.05)"/><path class="cls-1" d="M47.32,66.51l.44.5c-.15.11-.3.31-.44.29s-.32-.22-.37-.37S47.15,66.7,47.32,66.51Z" transform="translate(-2.85 -2.05)"/><path class="cls-1" d="M44.75,65.77a6.75,6.75,0,0,1-.76.08,2.26,2.26,0,0,1-.07-.39l.78-.09C44.72,65.51,44.74,65.64,44.75,65.77Z" transform="translate(-2.85 -2.05)"/><path class="cls-1" d="M32.29,56.36c.28-.21.45-.43.58-.41s.33.24.49.37c-.11.12-.23.34-.34.34A2.47,2.47,0,0,1,32.29,56.36Z" transform="translate(-2.85 -2.05)"/><path class="cls-1" d="M28.8,55.23l.39.56c-.14.1-.28.27-.41.26s-.38-.21-.36-.28S28.61,55.48,28.8,55.23Z" transform="translate(-2.85 -2.05)"/><path class="cls-1" d="M7.61,72.51a5.43,5.43,0,0,1,.56.33s0,.24,0,.24c-.21,0-.42,0-.63,0a2,2,0,0,1-.42,0,.86.86,0,0,1-.41-.21.34.34,0,0,1,0-.3,1.13,1.13,0,0,1,.44-.06,3.06,3.06,0,0,1,.45.08Z" transform="translate(-2.85 -2.05)"/><path class="cls-1" d="M5.24,72.27l.72.22c-.06.13-.15.38-.18.37a4,4,0,0,1-.65-.22Z" transform="translate(-2.85 -2.05)"/><path class="cls-1" d="M5,64c.16.24.36.41.33.5a.7.7,0,0,1-.4.38c-.07,0-.34-.23-.33-.34S4.76,64.19,5,64Z" transform="translate(-2.85 -2.05)"/><path class="cls-1" d="M20.42,50.78a7.87,7.87,0,0,1,.81-.09,2.26,2.26,0,0,1,.08.4l-.83.12Z" transform="translate(-2.85 -2.05)"/><path class="cls-1" d="M69.27,53c.21-.27.3-.47.37-.46a9.45,9.45,0,0,1,1.2.27.33.33,0,0,1,.07.29.44.44,0,0,1-.33.13C70.19,53.2,69.8,53.11,69.27,53Z" transform="translate(-2.85 -2.05)"/><path class="cls-1" d="M47.39,54.3,48.56,54l.16.17c-.1.25-.2.72-.29.72a4.22,4.22,0,0,1-1-.27Z" transform="translate(-2.85 -2.05)"/><path class="cls-1" d="M67.67,10.73l-.61.58-.34-.49.72-.4Z" transform="translate(-2.85 -2.05)"/><path class="cls-1" d="M72.35,11.88l-.78-.35.17-.39.77.4Z" transform="translate(-2.85 -2.05)"/><path class="cls-1" d="M68.45,10.8c.18.22.38.37.36.47s-.22.3-.34.44c-.14-.13-.36-.24-.4-.39S68.26,11,68.45,10.8Z" transform="translate(-2.85 -2.05)"/><path class="cls-1" d="M71.62,12.4a2.42,2.42,0,0,1,.44.5s-.23.31-.31.29a1.54,1.54,0,0,1-.48-.32Z" transform="translate(-2.85 -2.05)"/><path class="cls-1" d="M29.89,10.08c.21-.1.33-.22.45-.21.61,0,.44.61.57,1,0,0-.2.18-.31.28Z" transform="translate(-2.85 -2.05)"/><path class="cls-1" d="M25.38,13.48c-.34.17-.51.33-.66.32s-.3-.19-.45-.3a2,2,0,0,1,.54-.31C24.92,13.16,25.08,13.31,25.38,13.48Z" transform="translate(-2.85 -2.05)"/></svg>