<svg id="Layer_1" data-name="Layer 1" xmlns="http://www.w3.org/2000/svg" viewBox="0 0 46.52 45.67"><defs><style>.cls-1{fill:none;stroke:#fc93dd;stroke-miterlimit:10;stroke-width:3px;}</style></defs><title>egg</title><path class="cls-1" d="M45.33,20.58c-2.84,7-5.91,13.8-11.33,19.2-6,6-13.31,7.73-21.33,5.38-5.51-1.61-8.6-5.73-9.14-11.5s2.09-11,7.2-13.42A45.69,45.69,0,0,1,19,17.33,25.76,25.76,0,0,0,30.5,10.5" transform="translate(-1.96 -2.01)"/><path class="cls-1" d="M42.5,14.5a7.42,7.42,0,0,1-5.86,2.34c.1-2.11.75-3.13.86-5.34a71.73,71.73,0,0,1-11-2,15.14,15.14,0,0,1,8-2c2,0,2.93,0,5,0,.77,0,2.14,0,2.48-.58.53-.93,1.13-1.83,1.65-2.77s1.14-.71,1.83-.39,1.15.85.74,1.71c-.24.5-.44,1-.67,1.53a4.45,4.45,0,0,0,.09,4.5c1.53,2.79,1.69,6.85.88,10C44.66,19.92,43.5,16.5,42.5,14.5Z" transform="translate(-1.96 -2.01)"/></svg>